<?xml version="1.0" standalone="no"?>
<!DOCTYPE svg PUBLIC "-//W3C//DTD SVG 20010904//EN"
 "http://www.w3.org/TR/2001/REC-SVG-20010904/DTD/svg10.dtd">
<svg version="1.0" xmlns="http://www.w3.org/2000/svg"
 width="2048.000000pt" height="2048.000000pt" viewBox="0 0 2048.000000 2048.000000"
 preserveAspectRatio="xMidYMid meet">
<metadata>
Created by potrace 1.16, written by Peter Selinger 2001-2019
</metadata>
<g transform="translate(0.000000,2048.000000) scale(0.100000,-0.100000)"
fill="#000000" stroke="none">
<path d="M9020 19695 c0 -25 -1 -25 -92 -26 -132 0 -172 -9 -176 -37 -3 -21
-8 -22 -102 -22 -115 0 -130 -4 -130 -36 0 -22 -4 -24 -55 -24 -52 0 -55 -1
-55 -25 0 -23 -3 -25 -52 -26 -75 -1 -102 -11 -106 -37 -3 -19 -9 -22 -53 -22
-42 0 -51 -3 -60 -24 -9 -18 -22 -26 -56 -31 -34 -5 -46 -12 -53 -31 -6 -14
-18 -24 -28 -24 -26 0 -92 -64 -92 -89 0 -19 -6 -21 -55 -21 -51 0 -55 -2 -55
-23 0 -16 -9 -26 -30 -34 -20 -7 -30 -18 -30 -31 0 -14 -8 -22 -22 -24 -16 -2
-24 -11 -26 -30 -3 -25 -7 -27 -55 -30 -45 -3 -52 -6 -55 -25 -2 -14 -10 -23
-21 -23 -22 0 -41 -19 -41 -42 0 -13 -8 -18 -25 -18 -20 0 -25 -5 -25 -25 0
-17 -5 -25 -18 -25 -23 0 -42 -19 -42 -41 0 -9 -9 -19 -21 -22 -11 -3 -23 -15
-26 -26 -3 -11 -18 -24 -34 -30 -19 -7 -29 -17 -29 -30 0 -16 -6 -21 -25 -21
-20 0 -25 -5 -25 -24 0 -18 -8 -27 -30 -35 -19 -6 -30 -17 -30 -29 0 -13 -9
-22 -24 -26 -20 -5 -25 -14 -31 -55 -5 -41 -11 -50 -28 -53 -13 -2 -23 -13
-27 -28 -4 -15 -15 -26 -30 -30 -16 -4 -26 -14 -28 -28 -2 -16 -10 -22 -28
-22 -22 0 -24 -3 -24 -54 0 -52 -1 -55 -27 -58 -22 -2 -29 -9 -31 -30 -3 -22
-9 -28 -28 -28 -21 0 -24 -5 -24 -35 0 -23 -5 -35 -14 -35 -17 0 -43 -38 -48
-71 -2 -16 -10 -25 -25 -27 -17 -3 -23 -10 -23 -28 0 -16 -6 -24 -18 -24 -23
0 -42 -19 -42 -42 0 -9 -10 -28 -22 -41 -70 -75 -88 -105 -88 -151 0 -41 -2
-45 -27 -48 -20 -2 -29 -9 -31 -25 -2 -16 -10 -23 -25 -23 -13 0 -26 -9 -32
-22 -6 -13 -20 -27 -32 -33 -14 -6 -23 -19 -23 -32 0 -19 -6 -22 -52 -25 -52
-3 -53 -4 -56 -35 -2 -22 -9 -33 -19 -33 -8 0 -27 -9 -42 -19 -16 -11 -54 -22
-95 -26 -54 -6 -75 -13 -93 -31 -13 -13 -33 -24 -44 -24 -11 0 -36 -16 -55
-36 -31 -34 -34 -42 -34 -101 0 -59 2 -64 26 -73 38 -15 327 -13 342 2 9 9 12
-10 12 -85 0 -97 0 -97 -25 -97 -20 0 -25 -5 -25 -25 0 -21 -5 -25 -30 -25
-27 0 -30 -3 -30 -30 0 -25 -4 -30 -24 -30 -18 0 -26 -6 -28 -22 -2 -14 -12
-24 -28 -28 -18 -4 -26 -14 -28 -32 -2 -18 -11 -28 -28 -32 -15 -4 -24 -14
-24 -26 0 -12 -10 -24 -24 -30 -13 -5 -27 -18 -31 -30 -4 -12 -18 -25 -31 -30
-14 -6 -24 -18 -24 -30 0 -13 -7 -20 -20 -20 -12 0 -25 -10 -31 -24 -6 -13
-22 -29 -35 -35 -13 -6 -24 -17 -24 -25 0 -9 -10 -21 -22 -27 -32 -16 -38 -28
-38 -71 0 -35 -2 -38 -30 -38 -25 0 -30 -4 -30 -25 0 -20 -5 -25 -25 -25 -14
0 -25 -6 -25 -13 0 -20 -33 -47 -57 -47 -34 0 -53 -11 -53 -30 0 -13 -9 -20
-27 -22 -22 -2 -29 -9 -31 -30 -3 -22 -9 -28 -27 -28 -18 0 -26 -7 -31 -25 -4
-15 -13 -25 -24 -25 -37 0 -200 -163 -200 -200 0 -11 -10 -20 -25 -24 -23 -6
-25 -11 -25 -61 0 -54 0 -55 -30 -55 -25 0 -30 -4 -30 -24 0 -17 -7 -26 -25
-30 -22 -6 -25 -11 -25 -55 0 -46 -2 -49 -30 -54 -29 -6 -30 -9 -30 -57 0 -44
-3 -50 -25 -56 -23 -6 -24 -11 -27 -82 -3 -72 -4 -76 -28 -82 -24 -6 -25 -10
-28 -87 -3 -75 -4 -82 -25 -85 -26 -4 -36 -44 -36 -150 -1 -66 -2 -68 -26 -68
l-25 0 0 -274 0 -274 -25 -6 c-25 -6 -26 -9 -23 -79 3 -66 5 -72 26 -75 20 -3
22 -9 22 -67 0 -54 -3 -66 -20 -75 -12 -6 -25 -30 -32 -55 -7 -25 -18 -45 -25
-45 -21 0 -33 -36 -33 -102 0 -51 -4 -65 -19 -75 -11 -7 -25 -29 -32 -50 -6
-21 -23 -48 -35 -60 -22 -20 -24 -30 -24 -112 l0 -90 -27 -3 c-27 -3 -28 -6
-31 -60 -2 -42 -7 -58 -17 -58 -21 0 -35 -33 -35 -83 0 -33 -6 -49 -24 -66
-32 -30 -36 -62 -37 -310 0 -187 -2 -211 -16 -209 -28 5 -34 -51 -31 -289 3
-226 3 -228 26 -238 21 -9 22 -15 23 -155 1 -80 4 -215 8 -300 6 -151 7 -155
29 -158 21 -3 22 -6 22 -127 0 -99 3 -127 16 -139 8 -9 19 -16 23 -16 4 0 11
-46 15 -102 6 -90 9 -105 31 -128 24 -25 25 -32 25 -142 l0 -117 -42 -4 -43
-4 43 -1 42 -2 1 -62 c0 -40 3 -56 8 -44 7 18 8 18 14 2 4 -9 10 -15 15 -12 4
2 9 -4 9 -15 2 -22 -8 -24 -25 -7 -9 9 -12 9 -12 -1 0 -7 9 -15 20 -18 16 -4
20 -14 20 -52 0 -45 29 -111 49 -111 5 0 11 -38 12 -85 3 -70 7 -87 24 -99 14
-10 23 -34 30 -83 9 -59 13 -68 32 -71 21 -3 23 -8 23 -72 0 -81 6 -100 31
-100 17 0 19 -8 19 -72 0 -113 8 -147 36 -154 l24 -6 0 -164 0 -164 -24 0
c-30 0 -36 -20 -36 -130 0 -79 -2 -86 -22 -95 -13 -6 -24 -20 -26 -32 -2 -12
-14 -29 -28 -37 -16 -11 -24 -26 -24 -45 0 -40 -9 -61 -26 -61 -20 0 -34 -42
-34 -105 0 -48 -2 -54 -22 -57 -19 -2 -25 -12 -32 -55 -6 -38 -14 -53 -28 -56
-11 -3 -22 -15 -25 -26 -5 -19 -13 -21 -95 -21 -128 0 -128 0 -128 -120 l0
-100 29 0 c21 0 30 -6 34 -21 3 -11 15 -23 26 -26 12 -3 21 -15 23 -32 2 -20
9 -27 29 -29 17 -2 29 -11 32 -22 3 -11 16 -24 30 -29 14 -6 29 -16 34 -24 11
-20 47 -37 77 -37 16 0 26 -6 26 -15 0 -16 49 -45 77 -45 10 0 23 -10 28 -22
8 -19 19 -24 58 -26 39 -3 47 -7 47 -22 0 -11 9 -24 19 -30 13 -6 142 -10 351
-10 l332 0 11 30 11 30 84 0 c75 0 85 2 108 25 14 14 33 25 43 25 35 0 79 21
84 41 4 16 14 19 67 19 65 0 100 12 100 34 0 7 14 16 30 20 24 4 30 11 30 31
0 22 4 25 33 25 31 0 33 -2 29 -29 -3 -21 -10 -31 -26 -33 -14 -2 -22 -11 -24
-30 -3 -21 -9 -27 -30 -30 -19 -2 -28 -10 -30 -24 -2 -12 -13 -26 -24 -31 -13
-6 -26 -25 -33 -49 -6 -24 -19 -43 -33 -49 -12 -5 -22 -15 -22 -21 0 -16 -31
-40 -63 -48 -16 -4 -31 -16 -37 -31 -5 -13 -19 -25 -32 -27 -15 -2 -24 -11
-26 -25 -2 -13 -8 -23 -13 -23 -5 0 -18 -9 -29 -20 -17 -17 -20 -33 -20 -110
0 -83 -2 -90 -20 -90 -22 0 -40 -28 -40 -61 0 -12 16 -37 36 -55 42 -41 96
-46 137 -14 22 18 40 20 164 20 120 0 142 3 171 20 17 11 32 24 32 30 0 5 13
10 29 10 41 0 81 17 81 34 0 9 12 16 33 18 27 2 33 8 35 31 l3 27 85 0 c77 0
87 2 109 24 14 14 37 26 52 28 22 2 29 9 31 30 3 25 7 27 55 30 45 3 52 6 55
25 2 12 13 24 27 27 16 4 25 15 28 34 2 15 5 -19 6 -74 1 -82 -2 -103 -14
-108 -9 -3 -15 -18 -15 -40 0 -21 -6 -36 -15 -40 -8 -3 -15 -14 -15 -25 0 -14
-9 -23 -25 -27 l-25 -6 1 -128 c1 -113 3 -129 20 -143 21 -19 49 -22 49 -7 0
6 73 10 198 10 142 0 208 4 237 14 31 11 43 11 54 3 10 -9 148 -13 490 -15
l477 -3 24 26 c29 31 50 32 74 4 16 -19 26 -21 102 -17 62 3 89 9 103 22 16
15 46 20 158 26 76 4 146 10 156 15 13 5 17 2 17 -13 0 -31 11 -52 27 -52 8 0
12 -4 9 -9 -10 -15 -41 -1 -51 22 -11 25 -58 35 -81 16 -17 -14 -19 -70 -2
-87 9 -9 7 -12 -12 -13 -53 -3 -86 -15 -94 -34 -3 -8 -14 -15 -25 -15 -16 0
-51 -37 -51 -55 0 -3 16 -5 35 -5 24 0 37 -6 45 -20 14 -26 7 -36 -28 -43 -18
-4 -33 -16 -41 -33 -12 -26 -13 -27 -77 -20 -70 7 -94 -2 -94 -34 0 -11 -10
-20 -24 -24 -14 -3 -28 -16 -32 -29 l-8 -22 -6 25 c-4 18 -16 27 -42 35 -48
13 -57 24 -34 41 11 8 15 14 8 14 -6 0 -22 -11 -36 -25 -22 -22 -54 -34 -138
-50 -15 -3 -34 -12 -43 -21 -18 -19 -67 -22 -73 -5 -5 14 -42 15 -42 1 0 -5
-13 -10 -30 -10 -16 0 -30 -3 -30 -7 0 -5 -17 -9 -37 -10 -20 -1 -50 -12 -67
-24 -17 -13 -40 -22 -52 -21 -11 1 -31 -10 -44 -23 -13 -14 -29 -25 -37 -25
-7 0 -13 -4 -13 -8 0 -5 -13 -7 -29 -4 -22 3 -36 -2 -56 -22 -14 -14 -34 -26
-45 -26 -29 0 -69 -21 -75 -39 -2 -9 -16 -17 -31 -17 -14 -1 -38 -14 -53 -28
-15 -14 -40 -27 -56 -28 -42 -2 -48 -7 -33 -26 10 -12 10 -14 1 -8 -7 4 -13 2
-13 -3 0 -6 -12 -11 -27 -11 -46 0 -103 -20 -116 -41 -8 -12 -23 -19 -44 -19
-18 0 -33 -5 -33 -11 0 -22 -30 -39 -69 -39 -28 0 -41 -4 -41 -13 0 -31 -35
-47 -103 -47 -65 0 -67 -1 -67 -25 0 -24 -3 -25 -55 -25 -54 0 -55 0 -55 -30
0 -27 -3 -30 -30 -30 -25 0 -30 -4 -30 -24 0 -23 -4 -25 -52 -28 -49 -3 -53
-5 -56 -30 -3 -26 -7 -28 -47 -28 -26 0 -45 5 -48 13 -3 9 -10 9 -32 -3 -28
-15 -28 -15 -5 -18 18 -3 20 -6 9 -13 -10 -6 -10 -9 -1 -9 6 0 12 -7 12 -15 0
-9 -9 -15 -25 -15 -20 0 -25 -5 -25 -25 0 -18 -7 -28 -25 -35 -15 -6 -25 -17
-25 -30 0 -13 -10 -24 -25 -30 -14 -5 -25 -16 -25 -25 0 -8 -11 -21 -25 -27
-14 -6 -28 -22 -31 -34 -3 -13 -16 -25 -30 -28 -13 -4 -24 -13 -24 -22 0 -8
-13 -20 -29 -25 -19 -7 -31 -19 -33 -32 -2 -16 -11 -23 -30 -25 -22 -3 -28 -9
-28 -28 0 -20 -5 -24 -30 -24 -25 0 -30 4 -30 24 0 14 10 30 25 40 31 21 36
52 5 36 -11 -6 -20 -17 -20 -25 0 -8 -12 -15 -27 -17 -20 -2 -29 -9 -31 -24
-2 -15 -12 -24 -32 -27 -22 -5 -29 -12 -32 -34 -2 -21 -8 -27 -21 -25 -13 2
-22 -6 -30 -27 -6 -17 -19 -31 -28 -31 -23 0 -89 -65 -89 -89 0 -13 -8 -21
-22 -23 -13 -2 -24 -9 -24 -15 -1 -7 -2 -21 -3 -32 0 -10 -9 -21 -19 -23 -10
-3 -26 -22 -36 -43 -10 -20 -27 -40 -37 -42 -13 -4 -19 -14 -19 -34 0 -28 -8
-34 -39 -30 -7 2 -10 -2 -6 -8 3 -6 1 -11 -5 -11 -7 0 -10 -7 -6 -15 3 -9 -4
-21 -19 -31 -31 -20 -63 -106 -32 -88 9 6 8 3 -1 -8 -8 -9 -20 -14 -27 -12
-21 9 -33 -26 -33 -92 1 -62 -5 -84 -23 -84 -6 0 -8 4 -5 8 3 5 -1 9 -9 9 -18
0 -19 -9 -4 -24 8 -8 7 -13 -2 -18 -8 -5 -10 -4 -5 3 4 7 2 12 -3 12 -6 0 -11
-8 -11 -17 0 -10 -12 -29 -25 -42 -14 -12 -23 -26 -20 -31 2 -4 -4 -15 -15
-25 -11 -10 -17 -21 -15 -25 3 -4 -3 -7 -13 -6 -11 1 -16 -6 -15 -17 1 -12 -9
-22 -27 -28 -20 -8 -27 -17 -27 -35 0 -15 -10 -32 -22 -40 -11 -8 -21 -20 -21
-25 0 -5 -9 -20 -20 -32 -11 -12 -18 -27 -16 -33 3 -7 -3 -10 -15 -7 -12 3
-19 0 -19 -9 0 -7 -14 -22 -31 -32 -17 -10 -28 -24 -26 -30 6 -16 -2 -28 -28
-42 -15 -8 -20 -23 -22 -55 -1 -24 -5 -55 -8 -69 -4 -14 -7 -31 -7 -38 -1 -8
-5 -9 -11 -3 -7 7 -6 15 3 26 7 8 8 15 2 15 -22 0 -44 -52 -40 -98 3 -44 1
-47 -23 -50 -23 -3 -28 -9 -34 -47 -3 -25 -10 -47 -16 -50 -5 -4 -7 -10 -4
-15 3 -4 -3 -7 -13 -6 -13 1 -18 -8 -20 -34 -2 -19 -14 -46 -26 -60 -22 -23
-47 -118 -28 -106 4 2 8 -4 8 -14 0 -10 -4 -16 -8 -14 -11 7 -10 -3 1 -24 7
-13 3 -22 -15 -35 -16 -12 -24 -14 -24 -6 0 7 -3 10 -6 7 -3 -4 -1 -15 5 -27
9 -16 8 -22 -5 -29 -12 -7 -15 -18 -12 -41 3 -21 0 -31 -9 -31 -7 0 -20 -12
-30 -26 -14 -22 -17 -49 -16 -145 0 -67 -4 -119 -9 -119 -5 0 -7 -4 -4 -9 3
-5 -6 -16 -20 -26 -18 -11 -24 -23 -21 -36 3 -10 2 -19 -1 -19 -4 -1 -18 -10
-31 -21 -26 -21 -39 -79 -18 -79 6 0 3 -6 -8 -12 -35 -20 -50 -40 -53 -72 -2
-17 -15 -43 -30 -59 -22 -23 -27 -38 -30 -95 -1 -37 -4 -73 -4 -79 -1 -7 -7
-13 -15 -13 -17 0 -16 10 4 32 9 10 11 18 5 18 -18 0 -45 -48 -38 -67 6 -15 9
-15 17 -3 9 12 10 12 5 -3 -3 -10 -6 -21 -6 -23 0 -3 -4 -3 -9 0 -5 3 -7 -7
-6 -23 3 -33 -13 -65 -22 -43 -2 6 -9 12 -14 12 -6 0 -7 -4 -4 -10 3 -6 -1 -7
-9 -4 -21 8 -20 -6 1 -21 13 -9 13 -14 3 -20 -9 -5 -11 -4 -6 3 4 7 2 12 -3
12 -6 0 -11 -8 -11 -17 0 -9 -10 -27 -22 -40 -23 -24 -34 -88 -18 -98 6 -4 10
1 10 9 0 9 5 16 12 16 6 0 3 10 -8 22 -12 14 -13 18 -3 10 9 -6 18 -10 20 -7
3 2 5 -9 4 -25 0 -15 -2 -28 -5 -27 -12 3 -50 -25 -50 -36 0 -7 -9 -23 -21
-36 -12 -13 -19 -30 -16 -42 3 -10 1 -17 -4 -13 -5 3 -9 -4 -9 -15 0 -11 4
-22 8 -25 12 -7 -10 -159 -25 -174 -9 -9 -13 -43 -13 -105 0 -62 -5 -101 -15
-121 -10 -19 -15 -59 -15 -126 0 -95 -1 -99 -22 -102 -22 -3 -23 -6 -26 -140
l-3 -138 -29 0 -30 0 0 -88 c0 -81 -2 -90 -25 -112 -21 -20 -25 -33 -25 -81 0
-49 -3 -59 -24 -72 -20 -13 -24 -27 -30 -88 -6 -55 -12 -77 -27 -87 -11 -7
-19 -25 -19 -40 1 -26 1 -26 16 7 8 19 17 31 20 28 3 -3 1 -14 -5 -25 -13 -25
-14 -45 -3 -38 5 3 9 -8 10 -24 0 -17 -4 -30 -11 -30 -8 0 -8 -3 1 -12 20 -20
15 -58 -7 -58 -14 0 -21 8 -24 28 -3 21 -4 18 -6 -12 0 -22 -9 -48 -18 -59
-17 -18 -17 -19 0 -32 24 -17 26 -205 2 -205 -18 0 -20 21 -4 37 9 9 8 11 -2
10 -27 -4 -39 -18 -39 -44 0 -15 -7 -35 -16 -45 -9 -10 -17 -31 -18 -47 -1
-16 -4 -27 -7 -25 -3 2 -7 -24 -8 -58 -1 -42 -7 -69 -19 -82 -16 -20 -16 -20
1 -7 16 12 17 10 17 -28 0 -34 -9 -49 -23 -38 -2 1 -22 -16 -45 -39 -28 -28
-42 -49 -42 -67 0 -15 3 -26 8 -26 4 1 16 1 27 -1 l20 -1 -20 -8 c-11 -5 -24
-6 -29 -3 -5 2 -6 -1 -4 -9 3 -8 11 -13 17 -11 7 1 9 -2 6 -8 -4 -6 -13 -9
-21 -6 -9 3 -14 -2 -14 -14 0 -18 7 -20 80 -20 45 0 80 4 80 10 0 5 16 25 36
45 49 50 78 45 82 -12 l3 -43 334 0 334 0 3 92 c3 87 4 93 28 105 24 12 25 16
30 145 5 129 6 133 28 136 22 3 22 4 22 186 0 188 4 206 42 206 15 0 18 9 18
50 0 45 2 50 26 56 l25 6 -23 12 c-32 16 -33 77 -1 91 22 9 23 15 23 120 0
131 5 153 34 157 20 3 21 9 26 156 4 137 7 155 24 168 11 8 23 14 28 14 4 0 9
73 10 162 3 160 3 163 26 166 21 3 22 8 22 92 0 103 4 118 36 131 23 8 24 12
24 123 l0 115 -47 3 c-39 2 -50 7 -58 25 -7 16 -18 23 -37 23 -39 0 -78 17
-78 34 0 8 -12 21 -27 28 -24 11 -28 20 -31 61 -3 39 -6 47 -23 47 -13 0 -25
12 -35 35 -20 49 -18 70 11 89 20 13 25 25 25 60 0 75 2 76 96 76 80 0 85 1
94 24 17 45 68 45 88 0 10 -22 18 -24 72 -24 l60 0 0 124 c0 128 -1 126 45
164 10 9 15 31 15 72 0 52 3 61 25 76 24 16 25 20 25 129 0 129 3 143 36 156
23 8 24 11 24 134 0 125 0 126 25 135 23 9 25 15 25 69 0 73 6 90 36 102 23 8
24 13 24 101 0 100 3 109 38 127 12 6 22 18 22 27 0 8 11 19 25 24 23 9 25 15
25 72 0 67 4 77 35 94 16 9 20 23 21 65 2 86 3 89 28 99 20 7 25 17 28 52 2
34 8 45 28 55 22 11 26 20 30 85 4 64 8 74 28 83 16 7 22 18 22 41 0 17 7 37
15 44 8 7 15 18 15 24 0 6 14 23 30 38 21 19 30 35 30 58 0 26 14 44 80 109
64 62 80 84 80 107 0 34 8 48 33 57 11 4 21 16 24 27 3 11 14 22 25 26 10 3
24 16 29 28 6 12 20 26 32 31 17 8 23 20 25 53 3 34 8 45 26 54 13 5 29 21 35
34 6 13 17 24 24 24 8 0 19 11 25 24 6 13 19 27 30 30 10 4 24 18 30 31 6 14
19 25 27 25 9 0 20 11 25 24 5 13 17 27 28 30 10 4 24 18 30 31 6 14 19 25 27
25 9 0 20 11 25 25 8 20 16 25 46 25 32 0 44 8 89 55 47 49 57 55 94 55 48 0
55 -20 16 -46 -22 -15 -25 -23 -25 -79 0 -57 -3 -65 -26 -83 -25 -18 -27 -25
-31 -113 -3 -87 -5 -95 -28 -112 -22 -16 -25 -26 -25 -78 0 -53 -3 -62 -30
-86 -27 -24 -30 -32 -30 -89 0 -55 -3 -64 -25 -78 -24 -16 -25 -22 -25 -106 0
-87 -1 -91 -30 -117 -27 -24 -30 -32 -30 -89 0 -55 -3 -64 -25 -78 -24 -16
-25 -22 -25 -106 0 -90 0 -91 -45 -128 -11 -10 -15 -34 -15 -102 0 -84 -1 -90
-25 -106 -24 -15 -25 -21 -25 -106 0 -87 -1 -91 -30 -116 l-30 -26 0 -118 c0
-114 -1 -118 -25 -134 -23 -15 -25 -22 -25 -99 0 -98 -5 -113 -36 -126 -23 -8
-24 -11 -24 -133 0 -121 -1 -124 -25 -140 l-25 -17 2 -287 3 -287 338 -3 c364
-2 413 2 422 41 3 12 7 72 9 132 2 92 7 121 29 174 19 44 27 83 27 122 0 53 2
59 31 80 26 18 30 26 25 50 -3 16 -1 66 5 111 9 63 16 86 33 99 15 12 22 32
26 75 5 55 7 59 31 62 38 4 47 -35 15 -63 -32 -26 -40 -89 -25 -180 14 -81 8
-116 -23 -145 -20 -18 -23 -34 -29 -143 -4 -74 -13 -136 -22 -157 -8 -19 -23
-63 -33 -98 -9 -34 -23 -67 -31 -73 -7 -6 -13 -22 -13 -36 0 -36 50 -53 159
-53 86 0 91 1 107 25 21 32 47 32 68 0 16 -25 20 -26 109 -23 l92 3 5 184 c4
136 8 185 18 189 38 12 42 31 42 177 0 143 0 145 25 161 l25 16 0 172 c0 94 4
176 8 182 4 6 18 17 31 24 l24 12 -32 30 c-42 39 -42 80 -1 116 l30 26 0 118
0 117 30 21 c29 21 30 23 30 109 l0 89 34 26 c49 37 66 34 66 -11 0 -43 7 -57
33 -66 12 -4 17 -17 17 -42 0 -34 27 -75 50 -75 6 0 10 -18 10 -39 0 -33 5
-43 30 -61 28 -20 30 -26 30 -85 0 -58 3 -66 25 -81 17 -11 25 -25 25 -44 0
-41 10 -60 36 -71 20 -7 24 -16 24 -49 0 -31 5 -43 25 -56 17 -11 25 -25 25
-46 0 -37 16 -68 36 -68 8 0 19 -11 24 -24 5 -13 18 -27 29 -31 16 -5 21 -15
21 -42 0 -26 8 -42 29 -62 21 -20 31 -39 33 -67 2 -29 9 -42 26 -49 16 -7 22
-18 22 -43 0 -28 10 -44 60 -93 51 -50 60 -64 60 -94 0 -28 5 -38 25 -47 20
-9 25 -18 25 -49 0 -29 6 -43 28 -61 16 -13 35 -38 42 -57 13 -32 12 -35 -13
-55 -26 -21 -27 -26 -27 -109 l0 -87 119 0 c93 0 121 -3 131 -15 7 -8 17 -15
22 -15 13 0 208 -198 208 -211 0 -5 7 -9 15 -9 8 0 21 -14 30 -30 9 -17 22
-30 31 -30 8 0 19 -12 24 -26 6 -14 19 -28 29 -31 11 -3 22 -15 25 -28 6 -23
31 -35 78 -35 18 0 29 -7 33 -21 4 -11 18 -24 31 -29 13 -5 24 -16 24 -24 0
-21 32 -36 73 -36 27 0 36 -5 40 -21 3 -11 15 -23 26 -26 12 -3 21 -9 21 -13
0 -4 -9 -10 -21 -13 -11 -3 -23 -14 -26 -25 -3 -11 -16 -23 -29 -26 -14 -4
-26 -16 -30 -31 -4 -16 -13 -25 -26 -25 -12 0 -22 -9 -25 -20 -3 -12 -18 -27
-34 -36 -17 -8 -29 -23 -29 -34 0 -12 -8 -20 -22 -22 -16 -2 -26 -13 -32 -34
-9 -31 -10 -31 -90 -38 -45 -3 -159 -6 -254 -6 -171 0 -172 0 -194 25 -20 23
-28 25 -109 25 -52 0 -91 -4 -94 -11 -4 -6 -7 -74 -6 -150 1 -140 1 -140 -26
-165 l-27 -25 27 -25 c39 -36 37 -85 -4 -117 l-31 -24 31 -22 c29 -21 31 -26
31 -84 0 -69 -4 -78 -39 -97 l-25 -13 34 -27 33 -27 -7 -94 c-6 -82 -10 -96
-31 -114 l-24 -20 10 -301 c10 -307 7 -354 -26 -354 -8 0 -15 -4 -15 -10 0 -5
7 -10 15 -10 30 0 47 -90 25 -131 -6 -10 -20 -19 -30 -19 -19 0 -20 -7 -20
-135 l0 -135 803 0 c707 1 800 2 783 15 -14 11 -46 15 -109 15 -80 0 -89 2
-94 20 -3 11 -9 20 -14 20 -5 0 -38 29 -74 65 -54 55 -69 65 -98 65 -26 0 -36
5 -40 20 -3 11 -17 24 -31 30 -14 5 -26 16 -26 25 0 8 -11 21 -25 27 -20 9
-25 19 -25 46 0 31 -9 44 -60 94 -33 31 -60 61 -60 66 0 5 -11 14 -25 20 -21
10 -25 19 -25 52 0 33 -4 42 -24 51 -18 9 -25 22 -30 59 -5 37 -11 49 -31 58
-23 11 -25 17 -25 76 0 62 -14 96 -41 96 -5 0 -9 104 -9 254 l0 254 24 16 c20
13 26 27 32 83 5 47 12 72 26 83 12 10 22 38 29 79 7 43 17 72 32 87 12 13 32
34 45 47 16 16 27 45 35 90 9 56 14 67 34 72 14 3 23 13 23 24 0 11 25 45 55
76 30 31 55 60 55 65 0 5 9 11 19 15 11 3 23 14 26 24 3 10 16 23 29 29 13 6
27 20 30 30 4 11 16 22 27 25 11 3 23 15 26 26 4 16 13 21 40 21 29 0 44 9 93
60 53 56 62 61 111 67 42 4 60 12 81 34 24 26 34 29 86 29 52 0 62 3 76 24
l16 25 200 -1 c195 -2 200 -2 222 -25 28 -29 42 -29 62 2 15 23 20 25 74 19
38 -5 66 -15 85 -31 16 -12 39 -23 52 -23 13 0 37 -11 53 -25 19 -16 42 -25
64 -25 48 0 58 -15 58 -87 0 -51 3 -64 19 -73 34 -18 61 -11 92 23 l30 32 26
-33 c21 -28 31 -33 54 -28 34 6 55 -15 51 -54 -3 -22 6 -36 39 -66 137 -124
189 -183 189 -211 0 -19 9 -38 25 -53 17 -16 25 -34 25 -56 0 -25 7 -38 30
-54 28 -20 30 -26 30 -83 0 -34 -6 -73 -13 -87 -12 -23 -10 -29 25 -71 l38
-45 0 -266 0 -266 -25 -16 c-22 -15 -25 -23 -25 -79 0 -57 -3 -65 -30 -89 -23
-20 -30 -35 -30 -61 0 -26 -6 -39 -25 -51 -18 -12 -25 -25 -25 -48 0 -26 -11
-42 -55 -84 -43 -41 -55 -59 -55 -83 0 -25 -21 -50 -125 -155 -106 -106 -131
-126 -156 -126 -24 0 -42 -12 -83 -55 -52 -54 -53 -55 -111 -55 -54 0 -61 -3
-91 -35 l-32 -35 789 0 789 0 0 75 c0 54 -5 86 -19 113 -10 20 -24 75 -31 122
-6 47 -19 101 -27 120 -8 19 -17 67 -19 105 -2 39 -8 113 -15 165 -6 52 -12
131 -14 175 -1 44 -8 100 -15 125 -7 25 -14 121 -15 215 -2 94 -8 183 -14 199
-7 16 -9 37 -6 47 6 19 -3 133 -31 392 -8 76 -12 147 -9 158 4 12 0 31 -10 46
-10 14 -20 54 -23 88 -4 60 -6 64 -53 104 l-49 42 -23 -25 c-23 -24 -31 -26
-165 -32 -139 -7 -142 -8 -167 -36 -22 -25 -32 -28 -84 -28 -33 0 -63 5 -66
10 -3 6 -15 10 -26 10 -12 0 -23 10 -29 26 -6 14 -19 28 -29 31 -10 2 -24 16
-30 29 -6 13 -18 24 -26 24 -9 0 -20 12 -25 26 -6 14 -19 28 -30 31 -29 8 -29
73 0 80 11 3 23 16 26 29 3 13 13 24 21 24 7 0 22 13 31 30 15 26 23 30 60 30
35 0 44 4 53 24 6 13 22 29 35 35 13 6 24 18 24 26 0 9 11 20 24 25 13 5 27
18 31 29 5 16 15 21 44 21 37 0 71 23 71 47 0 6 9 13 21 16 11 3 23 14 26 25
2 11 15 24 28 30 13 6 26 20 29 30 4 11 16 22 27 25 11 3 23 14 25 24 3 10 18
26 35 35 16 9 29 23 29 31 0 8 11 19 25 25 14 6 25 19 25 27 0 9 11 20 24 25
13 5 27 17 30 28 4 10 18 24 31 30 14 6 25 18 25 26 0 8 12 21 27 28 17 8 30
25 35 45 8 29 13 33 43 33 30 0 35 4 40 28 15 71 30 105 52 115 13 5 23 16 23
23 0 7 14 22 30 34 25 18 30 28 30 61 0 33 4 41 24 49 13 5 27 18 31 29 3 11
15 23 26 26 11 4 24 18 29 31 5 13 16 24 24 24 19 0 36 31 36 65 0 20 15 41
55 79 47 44 55 57 55 87 0 28 5 38 25 47 21 10 25 19 25 51 0 33 5 43 30 61
25 18 30 28 30 61 0 33 4 41 25 49 14 5 25 16 25 24 0 9 10 21 23 27 33 18 37
28 37 96 0 34 4 64 9 68 14 8 41 -24 41 -50 0 -13 10 -29 25 -39 l25 -16 0
-175 0 -174 30 -21 30 -21 0 -119 c0 -117 0 -119 27 -138 25 -19 27 -23 32
-143 l6 -124 38 -3 c21 -2 37 1 37 7 0 6 9 20 20 31 17 17 33 20 109 20 84 0
90 1 105 25 l16 25 205 0 c202 0 204 0 216 23 18 34 27 37 120 37 80 0 88 2
102 24 13 19 27 24 76 29 33 3 64 8 69 11 7 4 5 25 -3 59 -7 28 -16 140 -20
247 -6 174 -9 202 -31 257 -13 34 -24 81 -24 105 0 24 -6 53 -13 64 -6 12 -20
35 -29 52 -10 16 -24 58 -32 93 -18 76 -50 188 -69 244 -8 22 -18 71 -21 110
-4 40 -13 76 -22 86 -8 9 -18 43 -21 75 -2 33 -17 91 -33 129 -17 44 -30 100
-34 149 -4 44 -11 87 -16 97 -15 27 -65 39 -160 39 -84 0 -87 -1 -108 -30 -22
-29 -24 -30 -112 -30 -84 0 -90 -1 -106 -25 -15 -22 -23 -25 -80 -25 l-63 0
-3 263 c-2 144 -1 270 1 279 2 13 13 18 37 18 25 0 38 7 50 25 16 25 18 25
163 25 l146 0 27 32 27 33 139 -3 c114 -2 142 1 152 13 8 9 29 15 56 15 38 0
46 -4 54 -25 5 -14 16 -25 24 -25 8 0 21 -12 28 -27 11 -24 20 -28 60 -31 39
-3 47 -7 52 -26 3 -14 16 -26 31 -30 16 -4 25 -13 25 -25 0 -22 19 -31 66 -31
28 0 36 -5 44 -25 5 -14 16 -25 25 -25 8 0 21 -11 27 -25 6 -13 20 -27 30 -31
11 -3 24 -16 30 -29 11 -24 35 -35 79 -35 18 0 28 -6 32 -20 3 -11 17 -24 31
-30 14 -5 26 -16 26 -25 0 -8 11 -20 24 -26 13 -6 27 -20 29 -30 3 -10 17 -23
31 -29 14 -5 26 -16 26 -25 0 -8 11 -20 24 -26 13 -6 27 -20 29 -30 3 -10 16
-23 30 -28 21 -8 26 -18 29 -53 2 -32 8 -45 24 -52 11 -5 28 -22 37 -38 9 -15
23 -28 32 -28 8 0 15 -7 15 -15 0 -8 11 -22 25 -31 17 -11 25 -25 25 -44 0
-41 10 -60 36 -71 19 -7 24 -16 24 -46 0 -43 7 -57 33 -66 9 -4 22 -18 27 -31
5 -14 18 -34 30 -46 11 -11 20 -30 20 -43 0 -13 7 -32 15 -43 10 -13 14 -45
15 -106 0 -52 4 -88 10 -88 6 0 19 -9 30 -20 15 -15 20 -33 20 -79 0 -52 3
-61 25 -75 24 -16 25 -19 25 -141 0 -123 1 -126 24 -134 31 -13 36 -28 36
-127 0 -80 1 -85 25 -96 17 -8 26 -22 31 -47 3 -20 7 -42 9 -48 8 -23 50 -14
77 17 20 23 35 30 61 30 32 0 35 -3 41 -35 5 -25 15 -39 32 -47 21 -10 24 -17
24 -69 0 -71 6 -88 36 -100 23 -8 24 -12 24 -113 0 -79 3 -106 15 -116 11 -9
12 -17 4 -31 -7 -14 -21 -19 -55 -19 -37 0 -47 -4 -51 -19 -6 -22 -23 -31 -67
-37 -41 -6 -43 -10 -13 -38 37 -35 36 -79 -3 -114 l-30 -28 30 -26 c27 -24 30
-31 27 -83 -2 -51 1 -59 26 -79 26 -21 27 -26 27 -111 0 -85 1 -90 27 -111 28
-22 28 -22 25 -137 l-3 -115 31 -22 30 -21 0 -118 c0 -112 1 -119 25 -141 32
-30 32 -45 -1 -66 l-25 -17 30 -28 c28 -25 31 -34 31 -88 0 -53 3 -61 26 -79
27 -19 27 -20 30 -163 1 -79 3 -147 3 -150 1 -3 12 -11 26 -17 25 -11 25 -13
25 -137 0 -123 1 -126 24 -134 44 -18 44 -60 -2 -81 -26 -11 -26 -12 -7 -26
43 -30 45 -34 45 -122 0 -81 2 -88 26 -107 25 -20 26 -22 27 -170 l2 -150 37
-3 c30 -3 38 1 43 18 8 27 43 40 105 40 34 0 50 -4 54 -16 3 -9 6 -59 6 -112
0 -104 3 -113 38 -131 21 -11 22 -16 22 -159 0 -102 4 -152 12 -160 7 -7 38
-12 69 -12 l57 0 7 63 c4 34 5 91 3 127 -3 63 -4 65 -30 68 l-28 3 0 135 0
134 -24 0 c-30 0 -40 13 -31 40 6 20 55 30 55 12 0 -5 7 -9 15 -9 11 0 12 4 5
11 -5 5 -10 17 -10 26 0 10 6 8 20 -10 l20 -25 0 28 c0 18 -10 39 -27 56 -24
24 -28 35 -26 82 2 59 -11 105 -33 113 -9 3 -14 20 -14 42 0 21 -7 46 -17 56
-16 18 -16 18 0 12 14 -5 17 0 17 23 0 16 -3 32 -6 36 -3 3 -7 29 -9 57 -1 32
-10 62 -22 79 -17 22 -21 48 -26 151 -13 271 -20 340 -34 351 -8 7 -13 33 -13
69 0 31 -3 59 -6 63 -3 3 -8 43 -11 89 -2 45 -7 85 -10 88 -3 3 -3 -29 -1 -70
3 -42 2 -66 -3 -55 -4 11 -8 33 -8 48 -1 16 -5 36 -10 45 -5 9 -11 67 -14 129
-4 107 -3 112 14 102 16 -8 19 -6 19 14 0 26 -25 56 -32 38 -1 -6 -4 52 -4
127 -1 75 -7 148 -12 162 -9 21 -11 15 -11 -39 -1 -66 -16 -78 -16 -13 -1 21
-4 52 -9 71 -7 29 -6 33 8 28 12 -5 16 0 16 18 0 13 -4 26 -9 29 -9 6 -17 45
-25 136 -3 32 -14 65 -25 81 -15 20 -21 44 -21 91 -2 84 -19 175 -36 189 -8 6
-14 27 -14 46 0 19 -3 32 -7 30 -5 -3 -9 19 -9 48 -2 53 -23 111 -40 108 -5
-1 -8 27 -7 62 2 45 -1 65 -11 68 -14 6 -39 -6 -36 -17 5 -21 -21 -66 -38 -66
-28 0 -33 20 -25 120 l6 90 -33 0 c-31 0 -32 1 -26 33 4 17 11 34 16 35 15 5
12 35 -6 70 -11 23 -23 32 -39 32 -17 0 -23 5 -22 20 1 18 2 18 19 3 17 -15
18 -14 12 33 -4 27 -13 56 -20 65 -8 8 -14 30 -14 47 0 24 -5 31 -22 34 -23 3
-34 35 -12 35 11 0 11 -3 1 -15 -10 -13 -9 -14 3 -10 25 8 23 42 -5 68 -14 13
-25 28 -25 34 0 6 -10 16 -22 21 -19 8 -24 19 -26 57 -2 34 -7 48 -18 48 -9 0
-14 10 -14 29 0 16 -6 34 -14 40 -8 7 -18 27 -21 44 -4 18 -14 43 -23 57 -10
14 -25 43 -34 65 -14 33 -17 36 -17 16 -1 -24 -1 -24 -16 -5 -8 11 -15 41 -15
70 0 41 -5 55 -25 74 -19 18 -25 34 -25 67 0 32 -4 43 -16 43 -20 0 -44 24
-44 45 0 9 -4 14 -9 11 -4 -3 -6 5 -4 17 3 14 -3 30 -16 41 -15 14 -21 31 -21
63 0 32 -4 43 -16 43 -17 0 -44 23 -44 38 0 5 -11 21 -24 35 -14 15 -26 41
-28 59 -2 27 -8 34 -29 36 -23 3 -28 9 -34 48 -5 36 -11 45 -31 50 -18 5 -24
13 -24 35 0 17 -5 29 -13 29 -8 0 -20 12 -28 28 -7 15 -26 39 -41 55 -18 17
-28 38 -28 57 0 25 -4 30 -25 30 -20 0 -25 5 -25 25 0 21 -5 25 -30 25 -27 0
-30 3 -30 30 0 25 -4 30 -25 30 -20 0 -25 5 -25 24 0 19 -7 26 -30 31 -23 5
-30 12 -30 31 0 19 -5 24 -24 24 -19 0 -25 6 -28 28 -2 21 -9 28 -30 30 -22 3
-28 9 -28 28 0 23 -3 24 -56 24 l-56 0 4 30 c4 28 3 30 -29 30 -31 0 -34 2
-31 28 3 24 0 27 -24 24 -24 -3 -28 0 -28 23 0 20 4 26 16 21 8 -3 12 -2 9 4
-3 6 -35 10 -71 10 -62 0 -64 1 -64 25 0 21 -5 25 -30 25 -25 0 -30 4 -30 24
0 22 4 24 33 21 30 -4 31 -3 12 10 -11 8 -30 25 -43 36 -25 24 -32 22 -35 -10
-1 -15 -8 -21 -23 -21 -12 0 -29 -3 -38 -6 -13 -5 -16 1 -16 29 0 31 2 34 24
30 20 -4 24 -1 24 22 0 18 -5 25 -14 21 -8 -3 -14 -1 -14 4 0 6 -6 10 -13 10
-8 0 -24 11 -37 25 -22 23 -58 36 -46 16 4 -5 -7 -4 -23 2 -18 7 -27 15 -22
22 4 5 7 15 7 22 -1 17 -63 61 -96 68 -15 3 -41 19 -56 35 -16 16 -39 30 -51
30 -13 0 -35 13 -51 29 -18 20 -32 27 -41 21 -8 -4 -11 -12 -7 -18 4 -6 -2 -8
-14 -5 -12 3 -22 -1 -26 -11 -10 -26 -56 -19 -92 14 -18 17 -36 30 -40 30 -7
0 -43 56 -48 73 -1 4 -3 10 -4 15 -1 4 -2 10 -1 15 0 4 -4 7 -11 7 -6 0 -8 3
-5 7 12 11 -25 43 -48 43 -13 0 -29 9 -36 20 -8 10 -21 20 -29 22 -8 2 -28 15
-45 30 -16 16 -39 28 -50 28 -11 0 -39 13 -63 29 -23 16 -62 33 -85 36 -23 4
-48 16 -54 26 -7 9 -26 20 -42 24 -16 3 -32 12 -34 19 -6 14 -93 46 -124 46
-10 0 -24 9 -31 20 -7 11 -20 20 -30 20 -14 0 -12 -4 8 -20 14 -11 20 -20 14
-20 -15 0 -46 35 -37 43 3 4 -9 8 -28 8 -27 1 -29 3 -9 6 36 7 50 22 50 53 0
36 -21 52 -61 48 -28 -2 -34 -8 -41 -36 -7 -25 -13 -32 -26 -28 -9 3 -29 8
-44 12 -16 3 -28 10 -28 14 0 13 -66 40 -98 40 -17 0 -40 10 -56 25 -15 14
-39 26 -54 26 -71 4 -95 8 -105 18 -15 15 -30 14 -21 -1 4 -7 3 -8 -5 -4 -15
10 -5 26 17 27 9 0 -2 8 -24 17 -23 9 -48 22 -55 28 -22 17 -71 34 -105 36
-23 1 -30 7 -30 22 1 14 -6 22 -21 24 -17 2 -23 10 -23 27 0 29 -14 33 -108
33 -75 0 -112 16 -112 49 0 7 -11 13 -24 13 -17 0 -26 7 -30 25 -6 22 -11 25
-56 25 -37 0 -50 4 -50 14 0 12 7 13 32 5 18 -5 105 -9 194 -9 134 0 164 -3
175 -16 28 -34 66 -44 177 -44 98 0 110 -2 132 -22 20 -19 40 -24 115 -30 120
-8 752 -10 849 -1 69 5 79 9 89 30 10 22 16 23 99 23 94 0 127 10 129 38 1 10
4 7 8 -8 7 -24 10 -25 93 -25 115 0 118 3 118 121 0 94 0 94 -25 94 -20 0 -25
5 -25 24 0 19 -7 26 -30 31 -28 6 -30 9 -30 55 0 40 -4 50 -25 64 -16 11 -25
26 -25 44 0 34 -9 47 -37 56 l-23 7 0 250 c0 244 0 249 20 249 11 0 24 8 27
18 6 13 10 7 19 -23 7 -26 17 -41 30 -44 10 -1 32 -16 48 -32 18 -19 39 -29
57 -29 26 0 29 -4 29 -30 0 -25 4 -30 25 -30 20 0 25 -5 25 -25 0 -21 5 -25
30 -25 24 0 30 -4 30 -21 0 -13 10 -23 30 -30 17 -6 30 -17 30 -25 0 -19 33
-34 77 -34 22 0 48 -7 59 -15 10 -8 33 -15 49 -15 17 0 37 -6 43 -13 9 -8 56
-13 143 -16 126 -3 130 -4 160 -32 l31 -29 172 1 c236 2 288 8 301 37 9 20 16
22 91 22 72 0 89 4 139 30 38 20 71 30 101 30 37 0 46 4 55 24 7 14 22 27 34
30 13 3 25 16 29 30 5 21 13 25 54 28 40 3 47 6 50 25 2 12 14 29 28 37 13 9
24 23 24 31 0 12 17 15 84 15 95 0 96 1 96 80 0 64 -7 80 -36 80 -19 0 -24 5
-24 25 0 18 -7 26 -24 31 -15 3 -27 15 -30 30 -5 20 -13 24 -44 24 -31 0 -41
5 -55 30 -10 16 -21 30 -25 30 -4 0 -20 11 -36 25 -21 18 -41 25 -73 25 -41 0
-43 1 -43 30 0 25 -4 30 -25 30 -20 0 -25 5 -25 25 0 21 -5 25 -29 25 l-29 0
-4 74 c-3 61 -8 79 -26 99 -13 13 -25 42 -28 63 -10 72 -14 83 -34 89 -11 4
-20 15 -20 26 0 25 -26 76 -41 81 -6 2 -14 28 -17 57 -4 44 -9 54 -28 62 -22
8 -24 15 -24 69 0 55 2 60 18 51 9 -5 26 -19 36 -30 12 -13 31 -21 52 -21 54
0 64 -8 64 -52 0 -41 32 -92 94 -147 16 -14 41 -38 56 -53 23 -23 37 -28 78
-28 45 0 51 -3 54 -22 2 -19 12 -25 56 -32 45 -8 52 -13 52 -33 0 -22 4 -23
69 -23 52 0 70 -4 75 -15 4 -11 22 -15 69 -15 37 0 68 -5 75 -12 9 -9 65 -14
190 -16 189 -4 232 3 232 37 0 18 8 20 82 23 78 3 82 4 88 28 4 16 14 26 28
28 16 2 22 10 22 28 0 20 5 24 29 24 20 0 30 6 34 20 3 11 17 24 31 30 l27 10
-3 132 -3 133 -52 3 -53 3 -1 -33 c-1 -32 -1 -33 -10 -7 -7 18 -20 28 -47 35
-31 7 -41 17 -60 57 -12 26 -28 47 -36 47 -7 0 -16 14 -19 30 -5 24 -12 30
-31 30 -19 0 -25 6 -28 28 -2 19 -9 28 -25 30 -12 2 -24 13 -27 27 -4 15 -15
25 -29 27 -16 2 -23 11 -25 31 -3 21 -9 27 -28 27 -22 0 -24 3 -24 55 0 30 -4
55 -9 55 -5 0 -13 9 -16 20 -3 11 -13 20 -21 20 -11 0 -14 19 -14 90 0 89 0
90 -25 90 -25 0 -25 1 -25 81 0 78 -1 83 -30 111 -29 27 -30 32 -30 112 l0 84
30 6 30 6 0 79 c0 75 1 80 23 83 21 3 22 9 25 87 2 71 6 87 22 98 14 10 20 26
20 54 0 21 5 39 10 39 6 0 10 33 10 80 0 77 1 80 25 86 l25 6 0 133 0 133 30
6 30 6 0 410 0 410 -30 0 -30 0 0 110 c0 109 0 110 -24 110 -22 0 -23 4 -29
76 -3 42 -10 81 -16 87 -6 6 -11 23 -11 38 0 15 -7 32 -15 39 -8 7 -15 18 -15
25 0 7 -11 24 -24 38 -14 15 -26 39 -28 54 -2 22 -9 29 -30 31 -27 3 -28 6
-28 58 0 50 -2 54 -24 54 -23 0 -24 4 -31 88 -7 92 -17 122 -39 122 -9 0 -15
25 -19 93 -6 101 -13 127 -32 127 -22 0 -25 26 -25 239 l0 208 -25 19 c-23 18
-25 25 -25 107 0 88 -9 122 -39 144 -10 7 -18 33 -21 70 -4 51 -8 58 -27 61
-22 3 -23 8 -23 82 0 90 -10 125 -38 132 -13 4 -21 18 -26 46 -3 24 -14 47
-26 55 -10 7 -24 25 -29 40 -7 17 -18 27 -31 27 -15 0 -20 7 -20 24 0 52 -17
75 -64 87 -34 8 -46 16 -48 33 -2 13 -11 22 -24 24 -18 2 -23 12 -28 51 -4 30
-14 55 -27 67 -11 10 -27 33 -34 50 -7 18 -23 37 -34 44 -12 6 -21 20 -21 31
0 11 -10 23 -24 29 -14 5 -26 19 -28 32 -2 17 -11 24 -30 26 -25 3 -27 7 -30
55 -3 44 -6 52 -24 55 -17 2 -23 12 -28 42 -6 41 -29 62 -77 74 -20 4 -27 14
-35 48 -6 29 -16 46 -32 54 -13 6 -36 23 -51 38 -15 14 -39 26 -53 26 -20 0
-27 6 -30 23 -2 14 -11 23 -25 25 -20 3 -23 10 -23 43 0 50 -15 79 -40 79 -15
0 -20 7 -20 25 0 19 -5 25 -23 25 -20 0 -25 7 -33 53 -7 42 -13 53 -30 55 -19
3 -22 11 -26 69 -4 56 -8 69 -30 87 -21 16 -27 32 -30 66 -2 35 -8 47 -25 55
-18 8 -23 18 -23 47 0 51 -9 68 -36 68 -21 0 -23 5 -26 53 -3 44 -6 52 -24 55
-18 2 -23 12 -28 51 -4 32 -14 55 -31 71 -18 17 -25 34 -25 62 0 28 -7 46 -25
64 -18 18 -25 36 -25 65 0 47 -23 107 -45 115 -10 4 -15 19 -15 46 0 46 -15
78 -35 78 -11 0 -15 13 -15 48 0 51 -12 72 -42 72 -15 0 -18 11 -20 78 -3 71
-5 77 -25 80 -21 3 -23 9 -23 63 l0 59 60 0 c46 0 60 -3 60 -15 0 -24 55 -45
119 -45 75 0 91 6 91 36 0 19 5 24 25 24 19 0 25 5 25 23 0 16 9 26 30 34 l30
11 0 130 c0 72 -4 142 -10 157 -10 26 -10 26 -107 23 l-98 -3 -3 -52 -3 -53
-85 0 -84 0 0 30 c0 28 -2 30 -41 30 -39 0 -69 17 -69 39 0 6 -6 11 -12 11 -7
0 -22 14 -33 30 -11 16 -24 30 -28 30 -4 0 -17 9 -29 20 -12 11 -28 20 -37 20
-8 0 -29 15 -46 33 -17 17 -48 46 -69 62 -21 17 -63 54 -94 83 -31 28 -65 52
-74 52 -10 0 -25 11 -34 24 -8 14 -28 28 -44 31 -37 8 -46 20 -55 73 -6 38 -9
42 -36 42 -19 0 -29 5 -29 15 0 8 -10 20 -22 26 -34 18 -134 122 -142 146 -4
12 -16 25 -27 28 -10 4 -19 14 -19 24 0 22 -19 41 -42 41 -13 0 -18 8 -18 25
0 20 -5 25 -25 25 -19 0 -25 5 -25 21 0 22 -60 84 -90 94 -10 3 -20 16 -22 28
-2 16 -11 23 -30 25 -20 2 -28 9 -28 24 0 13 -10 24 -30 31 -17 6 -30 20 -32
32 -2 12 -12 21 -26 23 -13 2 -27 14 -32 28 -5 13 -16 24 -24 24 -8 0 -21 12
-28 28 -10 20 -22 28 -46 30 -25 3 -38 11 -50 33 -11 18 -25 29 -39 29 -18 0
-23 6 -23 25 0 21 -5 25 -30 25 -24 0 -30 4 -30 21 0 14 -10 24 -28 31 -16 6
-33 20 -38 32 -6 13 -23 23 -50 29 -30 5 -44 15 -52 32 -10 21 -18 25 -57 25
-39 0 -45 3 -45 21 0 14 -10 24 -30 32 -21 8 -30 18 -30 34 0 18 -6 23 -24 23
-17 0 -27 7 -32 23 -8 25 -22 37 -46 37 -9 0 -28 11 -42 25 -23 23 -32 25
-119 25 -92 0 -94 1 -120 30 l-27 30 -204 0 c-212 0 -254 -6 -263 -40 -4 -17
-16 -20 -82 -22 -68 -3 -77 -5 -86 -25 -8 -19 -18 -23 -55 -24 -76 -2 -105
-12 -108 -36 -2 -12 -12 -25 -23 -28 -10 -4 -23 -14 -29 -24 -5 -10 -23 -21
-40 -24 -24 -5 -30 -12 -30 -32 0 -20 -5 -25 -25 -25 -20 0 -25 -5 -25 -25 0
-19 -7 -26 -35 -34 -21 -5 -54 -30 -85 -62 l-50 -52 0 31 c0 47 -17 82 -39 82
-17 0 -20 8 -23 48 -2 37 -7 49 -25 57 -13 5 -27 22 -32 37 -7 18 -17 28 -30
28 -17 0 -21 6 -21 33 0 47 -19 67 -68 74 -33 4 -42 10 -42 25 0 12 -11 23
-29 29 -19 7 -31 19 -33 32 -3 19 -10 22 -55 25 -44 3 -53 6 -53 22 0 25 -29
40 -74 40 -32 0 -36 3 -36 25 0 24 -3 25 -55 25 -51 0 -55 2 -55 24 0 32 -15
36 -126 36 -92 0 -94 0 -94 24 0 19 -6 24 -37 30 -21 3 -59 6 -85 6 -41 0 -47
3 -50 23 l-3 22 -297 3 -298 2 0 -25z m2022 -2481 c10 -16 23 -40 30 -54 7
-14 25 -43 40 -64 16 -21 28 -44 28 -51 0 -7 23 -35 50 -64 28 -29 50 -58 50
-65 0 -7 14 -25 31 -42 17 -16 42 -52 55 -81 25 -52 57 -89 192 -217 39 -38
72 -73 72 -77 0 -14 91 -99 106 -99 8 0 28 -10 45 -22 30 -23 104 -48 149 -51
18 -2 28 6 38 26 22 45 8 74 -56 114 -31 20 -77 54 -102 76 -25 21 -58 46 -73
53 -15 8 -55 43 -87 77 -33 34 -72 75 -87 90 -15 16 -37 44 -48 62 -11 18 -48
65 -82 104 -35 40 -63 80 -63 90 0 10 -6 24 -14 30 -17 14 -37 67 -29 75 7 6
60 -38 190 -157 51 -46 107 -92 126 -100 28 -14 68 -51 164 -152 7 -7 30 -19
50 -26 26 -8 68 -42 133 -109 57 -58 108 -101 128 -108 18 -6 45 -20 59 -32
14 -11 30 -20 35 -20 6 0 23 -11 39 -25 18 -15 49 -27 78 -31 40 -5 58 -15
107 -60 46 -42 66 -54 91 -54 24 0 37 -7 49 -25 13 -20 24 -25 60 -25 31 0 49
-6 63 -22 15 -15 36 -23 76 -26 46 -4 59 -9 75 -32 17 -24 27 -28 87 -32 41
-3 85 -13 110 -27 32 -16 60 -21 117 -21 66 0 78 -3 106 -27 26 -21 46 -28
103 -32 48 -4 84 -13 107 -28 19 -12 53 -25 74 -29 22 -4 49 -17 60 -29 12
-12 40 -35 64 -50 24 -16 51 -43 60 -60 9 -18 29 -50 44 -71 26 -38 26 -42 19
-132 -5 -78 -10 -96 -27 -110 -21 -17 -21 -23 -22 -502 -1 -267 -6 -541 -11
-610 -6 -82 -6 -144 1 -180 6 -35 9 -277 6 -665 -4 -592 -5 -611 -25 -650 -11
-22 -26 -64 -33 -93 -6 -28 -17 -55 -23 -59 -6 -4 -31 -7 -57 -8 -32 -1 -73
-14 -141 -48 -53 -26 -120 -52 -149 -57 -28 -5 -64 -19 -80 -30 -15 -11 -34
-20 -41 -20 -7 0 -31 -9 -53 -19 -23 -11 -66 -26 -96 -35 -31 -9 -77 -33 -105
-55 -53 -42 -240 -141 -266 -141 -9 0 -27 -8 -40 -19 -37 -28 -99 -57 -154
-70 -27 -7 -59 -21 -70 -31 -11 -10 -31 -21 -45 -25 -14 -4 -32 -13 -40 -21
-9 -7 -34 -20 -56 -27 -22 -8 -56 -26 -76 -39 -20 -14 -58 -28 -84 -32 -25 -3
-62 -16 -82 -28 l-35 -22 -37 21 c-20 12 -71 26 -114 32 -43 6 -83 14 -88 17
-5 4 -28 6 -50 6 -27 -1 -51 7 -70 21 -29 21 -37 22 -326 22 -286 0 -298 -1
-334 -22 -20 -11 -61 -26 -91 -33 -64 -13 -144 -68 -153 -105 -6 -22 -10 -24
-44 -19 -30 5 -42 2 -59 -15 l-21 -21 -25 26 c-24 24 -32 26 -86 22 -43 -3
-65 -10 -82 -26 -23 -22 -29 -22 -318 -22 -162 0 -317 3 -345 6 -65 8 -74 25
-74 140 0 69 4 91 19 110 10 13 22 40 26 60 9 49 42 91 81 104 18 6 55 37 85
70 37 42 61 60 78 60 63 0 140 162 141 296 0 30 8 70 20 95 11 24 20 64 20 89
0 28 9 61 22 85 19 34 23 56 23 137 1 84 4 102 23 127 19 26 22 43 22 119 0
49 6 110 14 136 14 44 13 49 -5 67 -22 22 -26 23 -67 8 -35 -12 -52 -49 -52
-113 0 -23 -9 -61 -20 -85 -11 -24 -20 -64 -20 -90 0 -26 -7 -74 -16 -106 -9
-33 -20 -80 -23 -105 -4 -25 -13 -55 -19 -67 -7 -12 -15 -50 -19 -85 -3 -35
-15 -76 -25 -93 -12 -21 -18 -50 -18 -95 0 -67 -15 -140 -29 -140 -4 0 -16
-16 -27 -36 -12 -23 -32 -41 -56 -51 -43 -17 -238 -223 -238 -251 0 -10 -10
-36 -22 -57 -17 -33 -22 -63 -27 -172 -4 -88 -10 -136 -19 -145 -10 -10 -98
-13 -422 -11 l-410 2 -34 26 c-19 14 -37 37 -40 51 -8 32 -41 64 -65 64 -10 0
-45 16 -77 35 l-58 35 -138 0 c-104 0 -148 -4 -176 -16 -23 -10 -64 -15 -108
-15 -47 1 -91 -6 -129 -19 -32 -11 -79 -20 -104 -20 -31 -1 -59 -9 -86 -25
-22 -14 -53 -25 -70 -25 -16 0 -43 -9 -60 -20 -18 -12 -47 -20 -73 -20 -35 0
-51 7 -95 43 -29 23 -77 53 -107 65 -30 13 -62 27 -70 32 -8 5 -55 30 -105 55
-49 26 -101 53 -115 61 -14 7 -35 14 -47 14 -13 0 -35 13 -49 29 -15 17 -39
33 -54 36 -15 3 -36 15 -45 25 -9 10 -30 22 -46 25 -16 4 -34 15 -40 26 -7 13
-11 282 -12 809 l-2 790 -28 25 -27 26 0 307 c0 169 3 358 7 420 5 98 8 112
24 112 26 0 29 11 30 88 1 66 2 69 30 79 19 8 29 18 29 32 0 12 8 25 18 28 24
9 32 23 32 56 0 19 10 38 30 55 16 15 30 33 30 41 0 8 11 29 25 47 14 18 25
40 25 49 0 8 12 20 26 25 14 6 28 19 31 29 2 10 16 24 29 30 13 6 24 18 24 26
0 9 12 20 27 26 15 5 33 19 40 29 8 11 29 22 49 26 19 3 41 16 49 27 9 13 30
23 57 26 30 4 46 12 52 27 5 11 27 31 49 45 21 13 54 33 72 44 18 11 41 28 51
37 10 10 31 28 45 41 15 13 43 27 62 30 20 3 53 17 74 31 21 14 46 26 55 26
10 0 28 11 39 24 12 13 36 27 55 31 20 3 41 16 50 30 9 14 24 25 34 25 10 0
31 11 47 24 18 14 46 25 78 29 33 3 55 12 66 26 20 25 59 41 100 41 17 0 38 9
51 22 14 14 41 24 74 29 30 4 68 18 90 33 21 14 45 26 52 26 7 0 30 13 50 28
22 17 60 33 95 40 38 7 75 23 106 47 27 19 53 35 57 35 5 0 23 7 39 16 64 34
202 103 247 124 26 11 63 34 83 50 19 15 54 31 76 35 29 5 43 14 51 31 6 13
19 24 28 24 47 0 78 22 95 66 9 24 23 44 31 44 8 0 14 10 14 24 0 21 6 25 48
30 56 8 102 25 102 38 0 5 5 6 10 3 19 -12 10 -42 -15 -53 -14 -6 -25 -20 -25
-29 0 -10 -10 -23 -22 -28 -16 -7 -26 -24 -34 -60 -18 -80 -49 -147 -86 -188
-19 -20 -38 -37 -42 -37 -4 0 -21 -12 -36 -27 -40 -40 -61 -56 -95 -78 -16
-10 -40 -29 -52 -42 -12 -12 -33 -23 -46 -23 -28 0 -86 -44 -143 -109 -21 -24
-54 -58 -72 -75 -19 -17 -43 -48 -53 -68 -11 -21 -23 -38 -28 -38 -8 0 -106
-95 -119 -115 -4 -6 -39 -35 -79 -64 -39 -29 -74 -58 -76 -66 -3 -7 -22 -16
-43 -20 -21 -3 -49 -15 -62 -26 -14 -10 -30 -19 -37 -19 -7 0 -24 -9 -37 -20
-30 -23 -97 -62 -156 -90 -24 -11 -82 -58 -128 -104 -98 -97 -106 -122 -43
-143 31 -10 47 -9 97 6 33 10 71 26 83 35 13 9 39 16 59 16 19 0 58 12 85 25
28 14 58 25 68 25 23 0 60 19 70 36 5 10 29 14 75 14 40 0 79 6 96 15 15 8 38
15 50 15 12 0 27 5 32 10 6 6 44 17 85 26 41 8 84 22 96 30 12 8 33 14 47 14
13 0 53 15 88 34 35 18 79 37 98 41 19 4 51 16 72 27 21 11 57 22 80 25 25 3
54 15 68 28 14 13 39 26 57 30 17 3 37 13 43 20 7 8 27 17 46 21 19 3 37 10
40 15 3 5 14 9 25 9 27 0 110 44 131 69 10 12 23 21 30 21 16 0 82 68 91 93 4
11 17 17 37 17 20 0 40 9 56 25 14 14 42 28 65 31 29 5 44 13 51 30 6 14 26
28 47 35 46 15 337 300 346 338 6 26 57 89 86 107 9 5 33 40 54 77 21 38 44
71 52 74 7 3 20 18 28 33 10 20 20 27 34 23 17 -4 18 -7 5 -31 -8 -15 -14 -33
-14 -40 0 -7 -7 -15 -15 -18 -8 -3 -20 -25 -27 -48 -6 -22 -19 -50 -29 -61 -9
-11 -26 -40 -38 -65 -62 -127 -94 -175 -163 -242 -27 -26 -54 -61 -60 -78 -6
-18 -32 -53 -58 -79 -49 -47 -53 -56 -51 -103 1 -32 32 -52 66 -44 28 7 135
104 135 123 0 7 5 13 12 13 17 0 48 31 48 49 1 9 21 43 45 76 25 33 50 72 56
88 6 15 15 27 21 27 5 0 18 21 29 46 12 25 29 54 38 63 10 10 21 36 25 59 4
26 13 45 26 52 11 6 20 17 20 24 0 7 11 29 24 49 13 19 27 46 31 58 4 13 17
35 30 49 15 16 24 43 28 77 3 29 14 67 23 85 21 41 44 124 44 160 0 15 9 42
20 60 11 18 20 43 20 55 0 31 11 54 23 50 6 -2 19 -17 29 -33z m-5410 -4275
c57 -75 111 -128 138 -134 17 -4 54 -33 92 -72 97 -101 131 -133 143 -133 6 0
38 -27 71 -59 32 -33 70 -71 84 -84 14 -14 50 -32 81 -41 59 -17 111 -62 143
-124 16 -30 34 -42 66 -42 15 0 19 -12 25 -72 4 -39 6 -128 4 -197 -4 -201 -2
-222 26 -255 18 -22 25 -41 25 -73 l0 -44 -47 6 c-36 5 -54 14 -73 36 -14 16
-28 29 -32 29 -5 0 -26 18 -49 39 -22 22 -65 54 -95 70 -29 17 -54 35 -54 41
0 5 -13 24 -29 42 -15 18 -31 51 -35 73 -8 42 -43 105 -88 160 -16 18 -28 42
-28 53 0 34 -11 52 -40 67 -16 8 -31 26 -35 42 -3 15 -27 52 -51 82 -24 29
-44 59 -44 66 0 18 -28 38 -68 50 -21 6 -42 21 -51 37 -25 41 -86 88 -141 109
-64 24 -87 24 -128 -1 -58 -35 -161 -143 -173 -180 -6 -19 -21 -46 -33 -58
-20 -23 -21 -32 -18 -200 3 -172 3 -177 27 -202 14 -14 25 -35 25 -46 0 -26
73 -104 98 -104 11 0 23 7 26 16 6 16 -16 68 -34 79 -5 3 -26 38 -46 78 -34
67 -36 77 -31 142 3 50 12 84 31 119 14 27 26 57 26 68 0 31 58 137 93 169 29
27 37 29 87 26 44 -2 66 -11 110 -40 30 -20 61 -37 68 -37 19 0 122 -111 122
-132 0 -9 11 -30 25 -46 30 -35 27 -72 -11 -139 -22 -37 -24 -54 -24 -160 0
-85 4 -126 15 -146 8 -16 19 -46 25 -67 14 -52 54 -97 93 -105 17 -4 42 -14
55 -22 31 -19 122 -19 161 2 37 19 48 14 110 -50 25 -24 54 -48 65 -51 12 -3
29 -16 38 -28 14 -17 28 -21 85 -23 l68 -1 5 -127 c5 -116 7 -128 27 -145 20
-16 23 -28 26 -128 2 -81 7 -116 20 -135 16 -25 16 -28 -4 -62 -20 -34 -23
-35 -78 -35 -50 0 -61 -4 -85 -29 -19 -20 -46 -34 -79 -41 -27 -5 -62 -19 -77
-30 -20 -15 -44 -20 -87 -20 -50 0 -67 -5 -112 -34 -79 -51 -114 -40 -211 68
-97 108 -162 156 -210 156 -23 0 -30 4 -30 20 0 26 -89 118 -140 144 -55 29
-163 122 -302 261 -96 96 -102 106 -99 172 2 49 -1 59 -25 84 l-27 29 10 87
c10 92 4 123 -31 152 -13 11 -15 30 -9 117 5 86 3 107 -10 128 -14 21 -17 63
-21 243 -2 125 -9 230 -15 246 -14 37 -8 46 39 53 22 4 49 17 61 30 12 13 33
24 45 24 23 0 134 84 134 102 0 6 13 8 35 4 29 -6 39 -3 61 19 14 14 49 35 77
46 29 11 63 31 77 43 71 64 108 70 142 25z m8933 -44 c36 -8 135 -46 152 -58
7 -5 38 -17 68 -26 37 -12 71 -31 98 -58 23 -22 53 -44 66 -48 13 -4 52 -33
86 -65 35 -32 81 -68 103 -79 22 -11 42 -27 45 -35 7 -19 -2 -54 -25 -91 -14
-23 -18 -51 -18 -118 0 -74 -4 -94 -21 -118 -12 -17 -20 -45 -21 -71 -1 -53
-24 -132 -44 -148 -9 -8 -14 -32 -14 -72 0 -32 -7 -72 -15 -87 -8 -16 -14 -44
-13 -63 1 -18 -4 -43 -10 -55 -7 -12 -12 -35 -12 -51 0 -18 -10 -37 -25 -52
-19 -18 -25 -34 -25 -64 0 -23 4 -47 9 -55 6 -10 2 -24 -14 -45 -12 -17 -25
-53 -29 -79 -3 -28 -16 -62 -31 -81 -14 -18 -25 -37 -25 -42 0 -18 -65 -71
-95 -78 -17 -4 -51 -30 -80 -60 -27 -29 -65 -58 -83 -64 -19 -6 -47 -23 -64
-37 -17 -14 -63 -42 -103 -61 -40 -19 -92 -50 -115 -69 -23 -19 -47 -35 -54
-35 -12 0 -32 -13 -123 -82 -44 -34 -76 -36 -96 -4 -10 15 -29 25 -55 30 -22
3 -45 13 -53 22 -7 8 -30 24 -51 35 -21 11 -38 23 -38 28 0 11 -65 51 -130 81
-27 12 -50 32 -57 47 -19 40 -16 128 8 221 24 96 56 137 115 148 43 7 71 19
94 40 83 74 83 74 171 74 69 0 90 4 119 22 19 12 47 29 61 38 31 17 92 89 132
153 22 37 27 56 27 109 0 58 -3 68 -29 95 -52 55 -60 164 -15 214 10 11 26 45
36 77 11 31 25 64 32 72 7 8 19 31 26 50 46 125 88 185 162 233 35 22 60 22
106 -2 46 -24 85 -65 102 -109 7 -18 25 -39 40 -47 31 -16 53 -65 51 -110 -1
-19 7 -42 20 -59 15 -19 24 -47 27 -81 4 -43 0 -60 -22 -97 -15 -27 -26 -60
-26 -82 0 -21 -7 -63 -16 -93 -15 -50 -15 -57 -1 -71 13 -13 19 -13 31 -2 9 7
16 18 16 25 0 7 13 29 29 49 39 49 48 110 27 175 -20 62 -20 89 -1 156 15 51
15 54 -10 121 -14 38 -33 89 -42 114 -29 80 -99 157 -191 211 -51 30 -54 30
-105 19 -133 -30 -136 -32 -170 -74 -30 -36 -157 -284 -157 -305 0 -5 -13 -25
-30 -46 -16 -21 -30 -45 -30 -54 0 -9 -7 -27 -15 -41 -8 -14 -50 -97 -94 -185
-78 -156 -95 -181 -173 -245 -20 -17 -40 -41 -44 -53 -3 -12 -36 -50 -72 -84
-49 -47 -72 -63 -93 -63 l-29 0 0 125 c0 101 3 132 17 158 15 26 19 67 23 232
l5 200 46 70 c26 39 64 87 85 107 22 21 89 87 151 148 62 60 118 110 125 110
13 0 98 77 98 89 0 3 30 31 67 61 70 59 158 109 183 104 8 -2 29 -6 45 -9z
m-927 -385 c3 -73 0 -113 -12 -147 -12 -35 -18 -103 -22 -248 -4 -112 -12
-222 -19 -250 -7 -27 -16 -130 -20 -228 -4 -119 -11 -188 -21 -212 -7 -19 -14
-56 -14 -83 0 -26 -7 -74 -15 -105 -8 -32 -15 -79 -15 -105 -1 -26 -6 -67 -11
-92 -6 -25 -16 -78 -22 -119 -7 -47 -18 -82 -29 -93 -13 -13 -18 -33 -18 -77
0 -42 -7 -75 -25 -113 -16 -33 -25 -71 -25 -103 0 -28 -9 -69 -20 -94 -11 -24
-20 -53 -20 -65 0 -34 -34 -133 -53 -154 -9 -10 -22 -34 -28 -53 -7 -19 -20
-45 -31 -58 -10 -13 -18 -30 -18 -37 0 -7 -11 -21 -24 -29 -14 -9 -27 -30 -30
-48 -4 -22 -29 -56 -76 -105 -39 -40 -70 -79 -70 -87 0 -8 -13 -24 -30 -36
-16 -12 -32 -35 -35 -51 -4 -18 -22 -40 -48 -59 -23 -17 -45 -40 -50 -51 -4
-11 -16 -22 -27 -25 -14 -4 -20 -14 -20 -34 0 -25 -4 -29 -29 -29 -21 0 -38
-10 -58 -34 -15 -18 -43 -41 -60 -50 -19 -9 -41 -33 -52 -55 -13 -24 -47 -58
-90 -90 -38 -28 -71 -58 -74 -65 -3 -8 -44 -40 -92 -71 -48 -32 -89 -64 -92
-71 -3 -7 -21 -18 -41 -25 -21 -6 -46 -19 -57 -28 -39 -33 -71 -49 -144 -69
-41 -12 -91 -33 -111 -47 -24 -16 -56 -28 -91 -31 -32 -4 -83 -20 -125 -41
-38 -19 -90 -37 -115 -40 -24 -3 -61 -14 -81 -24 -21 -11 -58 -19 -84 -19 -29
0 -56 -7 -72 -19 -20 -13 -50 -20 -113 -23 -63 -3 -95 -10 -115 -23 -23 -15
-53 -20 -149 -23 -101 -4 -127 -8 -167 -28 -47 -24 -48 -24 -407 -24 -318 0
-361 2 -376 16 -22 22 -76 33 -165 34 -57 0 -85 5 -115 21 -31 17 -62 22 -145
26 -58 2 -130 10 -160 18 -30 8 -82 17 -115 21 -33 4 -77 13 -99 20 -21 8 -56
14 -76 14 -21 0 -62 11 -92 25 -31 14 -71 25 -97 25 -25 0 -57 8 -75 19 -19
11 -60 21 -106 25 -62 5 -78 10 -95 30 -27 32 -122 95 -154 102 -14 4 -42 21
-61 38 -81 74 -202 142 -302 170 -38 11 -69 28 -91 50 -35 34 -97 56 -162 56
-49 0 -91 20 -152 73 -29 25 -66 48 -83 52 -16 4 -30 11 -30 16 0 16 -62 69
-97 84 -18 8 -33 19 -33 25 0 6 -22 33 -50 61 -27 27 -50 54 -50 59 0 5 -9 11
-19 15 -10 3 -35 27 -54 53 -20 26 -45 58 -57 72 -23 27 -79 103 -95 129 -39
62 -51 79 -71 98 -14 14 -25 41 -29 70 -4 27 -15 60 -25 74 -10 14 -23 43 -29
64 -5 21 -19 47 -29 59 -11 12 -25 37 -31 57 -7 21 -20 47 -31 59 -10 12 -24
47 -31 78 -6 32 -17 64 -24 72 -14 16 -53 118 -62 160 -2 14 3 54 12 89 l16
63 -27 39 c-15 22 -29 39 -33 39 -24 1 -34 25 -41 99 -5 64 -13 89 -33 119
-26 37 -27 42 -27 183 0 131 -2 148 -19 163 -34 31 -35 64 -4 109 l28 41 -3
207 c-3 135 0 214 7 227 11 20 12 20 73 -13 35 -18 74 -36 88 -40 14 -4 38
-18 53 -31 16 -13 38 -24 49 -24 11 0 34 -6 51 -13 18 -8 65 -25 106 -38 46
-15 94 -40 125 -64 28 -22 60 -45 71 -51 14 -8 21 -23 23 -55 1 -24 4 -54 7
-66 7 -32 71 -93 106 -100 19 -3 35 -15 41 -29 12 -25 81 -54 131 -54 16 0 40
-9 54 -20 20 -15 41 -20 88 -20 45 0 66 -5 76 -16 8 -10 26 -14 48 -13 20 1
54 -3 75 -10 26 -9 73 -12 143 -9 86 4 109 8 133 26 16 12 35 22 43 22 7 0 36
7 64 15 42 13 58 24 88 65 20 28 40 50 44 50 4 0 17 -9 29 -20 12 -11 24 -20
27 -20 12 0 79 55 125 102 34 34 58 50 91 57 24 6 197 11 384 12 l339 1 19
-23 c16 -20 17 -34 11 -128 -5 -75 -13 -118 -26 -145 -16 -31 -19 -54 -16
-114 3 -74 4 -75 46 -113 67 -58 111 -68 309 -70 123 0 178 3 195 12 35 20
509 14 549 -7 26 -13 32 -13 57 0 42 22 53 39 46 74 -8 42 -51 60 -153 66 -68
3 -90 9 -115 28 -27 20 -42 23 -123 23 -84 0 -94 -2 -118 -25 -25 -24 -33 -25
-165 -28 -121 -3 -141 -6 -156 -23 -21 -24 -134 -28 -153 -5 -6 7 -32 19 -56
26 l-45 13 0 59 c0 35 7 72 16 90 9 18 18 66 21 112 7 136 10 146 48 162 27
11 92 14 295 14 235 0 266 2 317 20 49 17 83 20 244 20 l186 0 44 -49 c24 -27
56 -67 70 -88 24 -35 35 -43 100 -61 41 -11 92 -28 114 -36 22 -8 52 -15 67
-16 15 0 45 -9 66 -20 33 -17 61 -20 193 -23 139 -2 159 0 209 20 30 12 76 25
102 28 87 11 218 139 278 273 25 54 53 74 109 80 32 3 56 11 67 23 13 14 31
19 73 19 45 0 73 8 141 41 47 22 92 45 100 50 8 5 24 13 35 18 73 32 122 59
160 89 15 12 34 22 42 22 8 0 36 11 62 25 66 35 217 105 226 105 4 0 23 14 42
30 18 17 40 30 47 30 8 0 38 11 67 24 30 14 72 28 94 32 22 3 47 13 55 20 9 7
36 20 60 29 24 8 48 19 54 24 6 5 29 12 51 16 22 4 54 16 71 26 17 11 41 19
53 19 12 0 34 13 49 28 16 17 31 25 37 19 6 -4 12 -53 13 -107z m-5290 -525
c99 -30 171 -100 171 -167 -1 -18 2 -47 6 -65 7 -29 5 -33 -21 -38 -49 -11
-74 -24 -74 -39 0 -16 -21 -26 -55 -26 -13 0 -37 -11 -53 -25 -46 -39 -67 -42
-246 -36 l-168 6 -27 31 c-22 26 -35 32 -83 37 -33 3 -68 14 -85 26 -21 15
-49 21 -116 25 -48 3 -92 8 -97 11 -6 3 -10 23 -10 43 0 50 52 108 106 118 22
4 51 13 66 20 15 8 40 14 56 14 16 0 49 7 73 16 24 10 87 20 139 24 58 5 117
16 150 29 45 18 69 21 135 17 44 -3 104 -12 133 -21z m3301 2 c24 -9 52 -17
63 -17 11 0 38 -14 59 -31 32 -25 39 -37 39 -65 0 -23 -6 -38 -19 -46 -11 -6
-37 -34 -58 -60 -28 -36 -49 -51 -78 -59 -22 -6 -50 -20 -62 -31 -28 -26 -90
-37 -213 -37 -96 -1 -147 10 -230 47 -51 23 -128 42 -167 42 -24 0 -67 29
-135 93 -25 23 -26 29 -17 56 13 36 99 118 132 124 12 3 162 4 332 3 265 -2
316 -5 354 -19z m-151 -3347 c13 -1 11 -4 -6 -13 -13 -7 -30 -26 -39 -43 -28
-52 -63 -178 -63 -227 0 -26 -7 -62 -16 -78 -12 -23 -15 -58 -13 -147 1 -112
-6 -186 -21 -207 -3 -5 -7 -73 -9 -150 -1 -77 -7 -153 -13 -168 -10 -25 -8
-31 16 -56 17 -17 26 -38 26 -58 0 -22 8 -38 26 -52 17 -14 28 -33 31 -60 4
-27 13 -45 29 -55 12 -9 25 -24 29 -35 3 -11 15 -23 26 -26 11 -4 25 -18 31
-31 6 -14 23 -27 37 -30 53 -12 54 -14 17 -44 -21 -16 -58 -39 -84 -51 -26
-12 -59 -35 -73 -52 -23 -27 -35 -32 -95 -38 -48 -5 -73 -12 -84 -26 -15 -18
-122 -43 -255 -59 -27 -3 -94 -14 -147 -25 -63 -12 -138 -19 -215 -19 -78 0
-131 -5 -158 -15 -22 -8 -103 -19 -180 -24 -77 -6 -158 -13 -180 -16 -29 -4
-61 1 -115 20 -41 14 -120 40 -175 56 -96 29 -232 84 -285 114 -14 8 -46 25
-71 38 -140 70 -208 194 -150 275 10 15 22 38 26 52 4 14 16 31 26 38 14 9 19
26 19 57 0 38 4 46 28 57 31 15 27 -41 33 456 l4 264 -28 24 c-15 13 -27 26
-27 29 0 3 0 36 0 75 l0 69 -55 57 c-46 48 -55 64 -55 93 0 36 0 36 13 11 11
-22 21 -26 89 -33 63 -6 82 -12 102 -32 24 -24 30 -25 162 -25 133 0 137 -1
160 -25 l23 -25 260 0 259 0 30 25 c29 24 30 24 281 27 l253 3 20 25 c18 23
28 25 138 30 79 4 124 11 135 20 10 8 44 15 84 16 36 1 86 7 111 12 25 5 51 8
58 6 8 -2 21 -4 30 -4z m426 -1635 c17 -17 36 -25 61 -25 19 0 35 -4 35 -9 0
-22 34 -41 71 -41 21 0 39 -4 39 -10 0 -23 41 -50 76 -50 27 0 37 -5 41 -20 3
-11 20 -25 39 -32 29 -10 34 -17 34 -43 0 -23 8 -37 30 -53 23 -17 30 -30 30
-56 0 -25 7 -38 25 -50 19 -13 25 -25 25 -54 0 -31 6 -43 30 -60 28 -21 30
-27 30 -86 0 -57 3 -65 25 -80 20 -13 25 -25 25 -56 0 -32 5 -42 31 -61 l30
-21 -2 -114 c-2 -112 -2 -115 24 -142 23 -24 27 -37 27 -83 0 -30 5 -60 12
-67 20 -20 70 -14 97 12 24 22 37 24 138 28 107 5 112 4 117 -16 3 -12 6 -119
6 -239 l0 -217 -25 -10 c-25 -9 -32 -28 -37 -90 l-3 -35 -95 -5 -95 -5 -3 -42
c-3 -36 1 -44 22 -59 25 -16 26 -19 26 -134 0 -104 2 -119 20 -135 26 -24 25
-38 -2 -50 -20 -9 -24 -19 -28 -83 -4 -65 -8 -74 -30 -85 -20 -10 -26 -21 -28
-55 -3 -34 -8 -45 -27 -54 -24 -11 -35 -34 -35 -80 0 -18 -5 -28 -15 -28 -19
0 -35 -32 -35 -72 0 -25 -6 -36 -22 -43 -18 -8 -24 -20 -26 -52 -2 -32 -9 -46
-25 -54 -30 -16 -37 -28 -37 -70 0 -28 -5 -38 -25 -47 -14 -6 -25 -18 -25 -26
0 -8 -12 -21 -27 -28 -22 -11 -29 -21 -31 -52 -3 -33 -13 -48 -58 -91 -46 -45
-54 -57 -54 -89 0 -29 -5 -38 -24 -46 -13 -5 -27 -18 -31 -29 -3 -12 -12 -21
-19 -21 -14 0 -65 36 -78 55 -4 5 -8 73 -8 151 0 139 0 141 -26 163 l-27 23 5
309 5 309 -29 25 -28 25 0 198 c0 141 -3 201 -12 210 -21 21 -76 14 -100 -13
-21 -24 -26 -25 -136 -25 -144 0 -206 -18 -218 -65 l-8 -30 -3 32 c-3 24 -11
34 -32 41 -16 6 -37 24 -47 41 -15 26 -25 31 -55 31 -28 0 -42 -6 -56 -25 -17
-23 -25 -24 -164 -31 l-146 -7 -22 32 c-22 31 -23 31 -109 31 -86 0 -87 0
-114 -32 l-28 -33 -27 33 c-28 32 -29 32 -113 32 -54 0 -91 -5 -98 -12 -8 -8
-12 -45 -12 -99 0 -86 1 -88 30 -109 l30 -21 0 -119 c0 -116 1 -120 25 -136
31 -21 31 -31 -1 -65 l-25 -27 30 -21 31 -22 0 -226 0 -227 32 -26 32 -27 -32
-30 -32 -29 30 -22 30 -23 0 -389 0 -390 38 -38 37 -38 194 2 194 1 20 27 c18
26 21 26 138 26 115 0 119 1 135 25 16 24 19 25 140 25 107 0 124 -2 124 -16
0 -9 -36 -51 -80 -94 -44 -43 -80 -82 -80 -88 0 -5 -11 -14 -24 -20 -13 -6
-27 -20 -30 -30 -4 -11 -16 -22 -27 -25 -11 -3 -23 -14 -26 -25 -2 -11 -15
-24 -28 -30 -13 -6 -26 -20 -30 -31 -3 -12 -11 -21 -17 -21 -5 0 -37 -27 -69
-60 -32 -33 -63 -60 -69 -60 -5 0 -10 -7 -10 -15 0 -8 -13 -21 -30 -30 -16 -9
-30 -22 -30 -30 0 -9 -11 -20 -24 -26 -13 -6 -27 -20 -29 -31 -3 -11 -14 -22
-25 -25 -11 -2 -25 -17 -32 -31 l-12 -27 -14 27 c-8 15 -22 29 -32 32 -9 3
-22 16 -27 28 -8 18 -20 24 -53 26 -34 3 -45 8 -54 27 -11 24 -34 35 -78 35
-17 0 -29 8 -35 23 -9 19 -19 23 -85 27 l-75 5 -3 54 c-3 49 -1 56 27 82 30
27 31 30 31 116 0 127 -5 133 -126 133 l-94 0 0 91 c0 101 -10 129 -44 129
-37 0 -45 -20 -48 -121 l-3 -94 -62 -3 c-39 -2 -63 1 -63 8 0 5 -9 19 -20 30
-25 25 -80 26 -109 3 -20 -17 -21 -28 -23 -223 l-3 -205 -73 -3 c-66 -3 -74
-5 -84 -27 -10 -22 -18 -24 -82 -27 -63 -3 -72 -5 -83 -28 -6 -13 -22 -28 -33
-32 -12 -4 -24 -17 -27 -28 -4 -15 -14 -20 -38 -20 -47 0 -65 -9 -76 -36 -7
-21 -15 -24 -60 -24 -44 0 -55 4 -79 30 -21 22 -37 30 -63 30 -27 0 -36 5 -40
21 -3 11 -15 23 -26 26 -12 3 -21 9 -21 14 0 22 -42 49 -76 49 -27 0 -37 5
-41 20 -3 10 -13 22 -22 25 -10 3 -27 19 -39 35 -13 17 -29 30 -36 30 -8 0
-16 9 -19 21 -3 11 -14 23 -24 25 -10 3 -26 18 -35 35 -9 16 -24 29 -33 29
-13 0 -15 9 -13 48 l3 47 180 5 c99 3 186 9 194 14 11 7 12 31 7 125 -6 96 -4
120 8 136 12 15 15 48 16 131 0 71 5 126 14 153 8 22 18 69 21 103 3 35 11 80
17 101 9 28 9 40 0 49 -17 17 -14 119 3 142 21 28 19 90 -5 136 -15 29 -18 45
-11 63 7 17 5 40 -5 73 -16 55 -19 223 -4 274 6 19 11 100 10 179 l-1 143 28
-7 c15 -3 30 -9 32 -11 3 -2 8 -77 12 -167 12 -250 28 -450 39 -472 15 -31 28
-146 20 -176 -4 -15 -16 -39 -26 -54 -18 -28 -20 -77 -5 -119 5 -12 2 -47 -6
-81 -10 -41 -13 -86 -9 -142 7 -92 -11 -463 -23 -496 -6 -16 -2 -32 15 -59
l24 -38 95 0 c90 0 95 1 111 25 15 24 21 25 109 25 67 0 96 4 104 14 8 10 10
48 5 127 -6 107 -8 115 -33 137 l-26 22 33 29 34 29 -31 28 c-27 24 -31 33
-25 58 3 17 17 42 30 56 l24 26 0 807 1 808 -43 39 -42 40 -161 0 c-88 0 -176
-4 -195 -10 -42 -12 -66 -6 -73 19 -7 28 -86 41 -252 41 l-144 0 -29 31 -28
30 -150 -8 -149 -8 -3 -122 -3 -123 -30 -22 -31 -23 7 -282 7 -281 -31 -28
-32 -28 7 -108 7 -107 -31 -29 -31 -29 30 -25 c26 -23 29 -33 29 -83 0 -50 -3
-60 -30 -85 -26 -25 -30 -35 -30 -84 0 -48 3 -58 24 -71 38 -25 39 -44 6 -73
-27 -24 -30 -33 -30 -84 0 -55 -1 -58 -25 -58 -22 0 -25 4 -25 36 0 32 -8 45
-55 89 -38 37 -55 61 -55 78 0 38 -10 58 -36 68 -20 7 -24 16 -24 49 0 31 -5
43 -25 56 -17 11 -25 25 -25 44 0 41 -10 60 -36 71 -20 7 -24 16 -24 49 0 31
-5 43 -25 56 -19 12 -25 25 -25 51 0 26 -7 41 -30 61 -22 19 -30 35 -30 59 0
30 -21 63 -41 63 -5 0 -9 16 -9 36 0 27 -7 43 -29 63 -21 20 -31 39 -33 67 -2
29 -9 42 -25 49 -20 9 -23 17 -23 73 0 58 -3 67 -29 91 -21 20 -31 39 -33 67
-2 29 -9 42 -25 49 -18 7 -23 18 -23 45 0 41 -7 53 -37 69 -30 15 -31 68 -3
104 17 22 20 40 20 140 0 111 1 115 25 131 22 15 25 23 25 80 0 39 -5 67 -12
73 -7 6 -40 11 -73 12 -50 2 -63 6 -80 26 -14 17 -31 25 -52 25 -26 0 -31 4
-37 30 -3 19 -15 34 -31 42 -24 11 -25 14 -25 104 0 93 -1 97 -41 127 -13 10
-15 28 -11 115 l4 102 87 0 c93 0 102 -3 120 -37 10 -20 20 -23 76 -23 60 0
65 -2 85 -30 21 -29 25 -31 84 -28 l61 3 3 73 c3 66 5 74 27 84 24 11 25 15
25 100 0 92 10 128 35 128 8 0 15 3 15 8 7 116 13 135 45 156 19 12 25 25 25
51 0 32 21 65 41 65 5 0 9 15 9 34 0 31 4 36 36 46 22 7 39 21 44 36 8 20 16
24 50 24 31 0 43 5 56 25 14 22 23 25 76 25 53 0 63 3 87 29 24 26 36 30 97
34 38 2 79 7 91 11 43 15 48 -16 46 -289 l-3 -250 -27 -22 -28 -23 28 -23 c32
-25 29 -47 -9 -72 -24 -15 -24 -17 -24 -183 0 -184 2 -192 57 -192 26 0 36 -6
45 -25 14 -32 25 -31 60 2 l29 28 26 -33 25 -33 182 2 c185 3 263 15 298 46
16 14 18 14 24 -1 3 -9 29 -23 58 -31 29 -9 62 -27 76 -43 l25 -27 119 5 c117
5 120 5 126 30 4 14 4 205 0 425 -4 220 -4 405 -1 411 3 6 23 26 44 44 37 32
38 33 94 21 31 -6 87 -11 123 -11 48 0 71 -4 80 -15 7 -8 18 -15 25 -15 24 0
36 -28 36 -85 1 -50 5 -60 30 -83 l29 -25 0 -172 c0 -170 0 -172 25 -193 24
-21 25 -26 25 -140 0 -114 1 -119 25 -140 16 -14 25 -32 25 -51 0 -54 19 -62
142 -58 104 4 111 6 134 31 36 38 85 36 114 -4 l21 -30 258 0 c199 0 270 3
316 15 54 14 64 14 107 0 26 -8 74 -15 107 -15 55 0 61 2 82 31 l22 32 26 -32
c25 -31 28 -31 112 -31 119 0 122 4 113 146 -6 103 -8 110 -35 136 -29 27 -29
28 -29 142 0 112 -1 116 -25 132 -25 16 -25 18 -25 163 l0 147 -30 22 -30 23
0 169 0 169 29 15 c16 9 31 22 34 31 9 21 22 19 51 -10z m-4872 -745 c20 -28
26 -30 84 -30 59 0 64 -2 85 -31 12 -17 37 -38 55 -45 l34 -14 2 -183 c3 -178
4 -182 26 -192 20 -9 30 -43 16 -57 -11 -11 -77 17 -91 39 -12 18 -24 23 -59
23 -38 0 -46 4 -54 25 -8 21 -16 25 -49 25 -37 0 -71 19 -71 41 0 5 -18 9 -41
9 -32 0 -46 6 -69 32 -16 17 -34 44 -41 60 -6 15 -15 28 -19 28 -4 0 -28 20
-54 45 -35 35 -46 52 -46 77 0 17 -7 39 -16 49 -26 28 -11 49 35 49 32 0 44 5
57 25 12 18 25 25 48 25 17 0 42 7 56 14 45 25 87 20 112 -14z m4614 -1550
c11 0 14 -20 14 -98 0 -82 3 -102 18 -118 19 -20 62 -227 62 -298 0 -18 6 -39
14 -45 8 -7 17 -28 21 -49 4 -20 18 -61 32 -90 22 -46 24 -59 16 -100 -7 -35
-5 -64 8 -117 10 -38 22 -92 27 -120 6 -27 18 -70 27 -95 21 -57 32 -183 17
-213 -5 -12 -13 -30 -16 -39 -3 -10 -14 -18 -24 -18 -10 0 -23 -5 -30 -12 -17
-17 -20 -1 -26 151 -4 111 -8 139 -24 160 -27 38 -42 87 -42 141 0 26 -5 61
-11 79 -8 23 -8 39 1 60 9 23 8 36 -5 67 -9 21 -15 62 -14 93 2 57 -18 120
-47 152 -14 16 -19 86 -23 326 -1 62 -4 72 -21 78 -17 5 -20 15 -20 62 0 46 3
54 16 49 9 -3 22 -6 30 -6z"/>
<path d="M10555 15416 c-49 -25 -55 -26 -248 -26 -140 0 -205 -4 -220 -12 -15
-9 -68 -13 -162 -13 -130 0 -143 -2 -178 -24 -34 -21 -51 -24 -150 -25 -97 -1
-118 -4 -157 -25 -35 -18 -62 -24 -122 -25 -62 -1 -82 -5 -107 -24 -26 -19
-42 -22 -100 -21 -57 1 -79 -3 -118 -23 -74 -38 -168 -68 -217 -68 -32 0 -54
-8 -84 -30 -46 -33 -46 -33 -31 -61 13 -24 53 -19 109 13 20 12 66 24 105 29
135 15 200 29 240 49 29 15 59 20 115 20 69 0 79 3 100 25 23 24 28 25 150 25
120 0 129 1 165 26 36 24 42 25 126 18 73 -5 93 -4 113 10 20 13 53 16 163 16
109 0 153 4 208 20 56 16 101 20 222 21 138 1 155 3 179 21 18 15 50 23 111
29 79 8 113 20 113 39 0 17 -57 30 -162 35 -108 7 -115 6 -163 -19z"/>
<path d="M12146 14689 c-20 -16 -49 -24 -102 -29 -44 -4 -84 -15 -101 -26 -44
-29 -113 -59 -168 -73 -27 -7 -136 -55 -242 -107 -105 -52 -204 -94 -219 -94
-15 0 -37 -9 -48 -19 -19 -18 -42 -28 -136 -61 -19 -7 -58 -21 -85 -31 -66
-25 -305 -28 -325 -5 -6 8 -26 20 -44 26 -27 9 -38 21 -59 70 -27 65 -46 74
-71 38 -13 -18 -16 -53 -16 -168 0 -80 -4 -151 -8 -157 -6 -9 -17 -10 -45 -2
-37 10 -37 10 -37 63 0 42 -6 62 -32 102 -17 27 -39 64 -48 82 l-16 33 -19
-41 c-17 -37 -17 -47 -6 -88 7 -26 18 -58 26 -72 12 -22 34 -64 133 -257 31
-60 191 -218 228 -226 16 -3 42 -17 58 -30 19 -17 52 -29 100 -38 91 -17 370
-18 411 -2 29 12 109 33 205 53 24 6 56 21 70 33 43 39 94 74 120 82 14 4 41
19 60 33 35 26 243 233 311 311 21 23 65 55 100 72 35 17 75 42 89 54 42 38
110 63 193 69 57 4 86 2 105 -8 15 -8 44 -17 63 -21 29 -5 39 -14 55 -48 23
-50 73 -72 101 -44 25 25 23 100 -5 134 -12 15 -29 44 -37 64 -36 83 -305 297
-375 299 -14 0 -41 8 -60 19 -60 32 -93 35 -124 10z"/>
<path d="M9997 14648 c-12 -65 -10 -382 1 -411 7 -16 12 -48 12 -72 0 -35 6
-50 31 -77 29 -32 31 -32 45 -14 30 41 7 96 -41 96 -23 0 -26 2 -15 15 22 27
29 94 14 131 -10 23 -14 78 -14 183 0 82 -3 156 -6 165 -10 26 -21 19 -27 -16z"/>
<path d="M9590 14391 c-15 -30 -12 -88 8 -124 25 -47 25 -347 0 -393 -16 -30
-16 -32 2 -49 26 -24 53 -6 74 50 16 42 17 52 4 118 -11 51 -12 82 -5 107 14
54 2 175 -22 216 -12 19 -21 48 -21 65 0 34 -24 40 -40 10z"/>
<path d="M9391 13887 c-7 -18 -11 -111 -11 -256 0 -188 -3 -231 -15 -241 -31
-26 -35 0 -35 229 0 253 -3 266 -65 273 -37 4 -43 -14 -44 -138 -1 -50 -8
-113 -16 -140 -14 -46 -18 -51 -74 -77 -67 -31 -97 -34 -128 -12 -12 8 -43 18
-70 22 -26 3 -64 14 -83 23 -26 13 -74 19 -185 24 -120 6 -155 11 -175 25 -22
16 -60 19 -326 24 l-301 7 -71 -35 c-61 -30 -95 -60 -234 -200 -169 -170 -187
-195 -264 -355 -25 -52 -54 -111 -64 -130 -10 -19 -21 -46 -25 -60 -4 -14 -16
-34 -27 -46 -24 -27 -35 -89 -18 -109 7 -8 29 -15 49 -15 33 0 46 9 121 83 47
46 105 97 130 115 25 17 65 52 90 77 25 25 49 45 55 45 6 0 44 17 85 37 l75
38 288 3 c241 3 296 1 336 -13 26 -8 76 -19 112 -24 35 -5 82 -16 104 -25 22
-8 52 -15 68 -16 22 0 27 -4 27 -25 0 -26 -70 -120 -131 -177 l-29 -27 0 -164
c0 -146 2 -167 19 -188 10 -14 25 -40 34 -59 35 -81 152 -150 257 -150 44 0
71 8 135 40 44 22 85 40 91 40 6 0 36 24 66 53 73 70 98 141 98 279 l0 97 -60
65 c-33 35 -77 72 -98 81 -20 10 -38 19 -40 20 -1 1 3 14 9 29 11 24 17 26 70
26 32 0 70 5 86 11 49 18 152 128 186 199 l32 65 3 306 c2 249 0 313 -11 340
l-15 34 -11 -28z"/>
<path d="M12475 13221 c-27 -10 -75 -30 -106 -44 -31 -15 -61 -27 -67 -27 -19
0 -82 -62 -102 -99 -19 -38 -16 -54 19 -94 15 -17 17 -17 51 18 93 95 181 134
298 135 39 0 61 6 79 20 31 24 67 25 140 4 45 -13 60 -14 84 -4 38 16 53 43
39 69 -14 28 -26 30 -215 35 -147 4 -177 3 -220 -13z"/>
<path d="M11172 13130 c-23 -10 -57 -22 -76 -25 -48 -9 -162 -115 -177 -164
-7 -22 -10 -91 -8 -172 l4 -135 43 -64 c72 -110 171 -168 302 -177 64 -5 82
-2 117 15 22 12 61 26 87 33 74 18 156 94 156 144 0 11 10 38 22 60 16 29 22
57 22 105 1 94 -27 143 -154 272 -91 93 -108 106 -131 102 -15 -3 -40 1 -57
10 -41 21 -98 20 -150 -4z"/>
<path d="M12699 12932 c-24 -11 -81 -17 -189 -21 -140 -6 -159 -9 -200 -31
-50 -28 -61 -57 -34 -85 21 -21 107 -16 172 9 35 13 75 16 192 15 171 -2 193
5 183 54 -7 40 -20 55 -59 66 -22 6 -40 4 -65 -7z"/>
<path d="M7655 12670 c-106 -3 -192 -11 -208 -18 -16 -7 -45 -12 -65 -12 -62
0 -167 -47 -196 -88 -24 -34 -24 -37 -9 -54 21 -23 64 -23 94 1 26 19 79 29
225 39 69 5 97 12 113 26 18 16 34 18 148 15 l127 -4 16 28 c14 27 14 29 -13
53 -15 13 -33 23 -40 22 -7 -1 -93 -5 -192 -8z"/>
<path d="M7607 12366 c-19 -13 -50 -27 -68 -31 -20 -5 -51 -27 -83 -60 -29
-29 -67 -57 -88 -64 -26 -8 -38 -19 -38 -31 0 -38 79 -41 122 -5 16 14 42 25
57 25 32 0 174 90 197 125 12 18 13 28 4 44 -15 28 -58 27 -103 -3z"/>
<path d="M5620 11331 c-5 -11 -10 -23 -10 -28 0 -11 72 -86 150 -156 36 -32
72 -65 81 -73 9 -8 34 -14 57 -14 44 0 67 16 30 22 -12 2 -28 13 -34 26 -14
29 -201 210 -236 228 -25 13 -28 12 -38 -5z"/>
<path d="M14538 11314 c-43 -54 -162 -154 -182 -154 -7 0 -25 -13 -40 -29 -15
-15 -45 -34 -67 -41 -36 -12 -40 -16 -37 -44 8 -83 147 -19 316 143 113 109
113 109 90 125 -29 20 -64 20 -80 0z"/>
<path d="M11015 11040 c-49 -22 -108 -45 -130 -51 -22 -6 -53 -18 -69 -26 -24
-13 -48 -13 -167 -3 -134 12 -139 11 -168 -9 -42 -30 -113 -41 -270 -41 -108
-1 -147 -5 -191 -20 -75 -27 -183 -26 -258 1 -31 11 -79 24 -107 29 -60 10
-131 31 -202 59 l-52 21 -22 -33 c-13 -17 -42 -53 -66 -79 -24 -26 -43 -57
-43 -68 0 -13 -25 -47 -60 -82 -33 -34 -63 -70 -66 -82 -4 -12 -26 -44 -50
-72 -24 -28 -49 -66 -56 -84 -6 -18 -30 -60 -52 -93 -23 -33 -47 -71 -55 -86
-7 -14 -29 -49 -48 -77 -45 -67 -83 -176 -83 -240 0 -44 4 -54 33 -81 17 -18
64 -46 102 -64 64 -30 79 -33 171 -33 82 -1 105 2 120 16 11 9 33 20 49 24 17
3 42 18 58 33 15 14 38 36 51 49 28 27 36 28 36 3 0 -28 35 -67 77 -85 21 -10
49 -24 63 -32 36 -21 143 -13 195 15 22 11 45 21 51 21 6 0 20 11 32 25 13 14
33 25 47 25 15 0 36 11 49 25 28 30 40 31 66 5 11 -11 32 -22 47 -26 16 -4 37
-14 48 -24 11 -10 42 -20 70 -24 27 -3 66 -15 87 -26 32 -16 58 -20 149 -20
94 0 118 3 169 25 33 14 72 25 88 25 17 0 37 9 49 23 62 66 80 77 120 77 26 0
50 -8 68 -22 15 -12 49 -25 76 -29 27 -4 61 -17 76 -28 37 -30 142 -30 168 -1
10 11 31 20 48 20 19 0 38 10 55 28 16 17 42 31 64 35 50 8 114 70 123 121 6
28 11 36 23 31 8 -3 48 -3 89 1 85 8 127 31 212 115 34 35 51 60 52 78 3 170
-3 247 -21 271 -11 14 -27 40 -35 58 -8 19 -27 46 -42 61 -16 15 -67 68 -114
118 -87 91 -182 153 -233 153 -12 0 -39 9 -61 20 -22 11 -46 20 -55 20 -8 0
-32 11 -52 25 -59 40 -139 35 -253 -15z"/>
<path d="M14865 16974 c-13 -13 -15 -32 -13 -88 2 -39 7 -77 11 -83 5 -8 30
-13 62 -13 63 0 75 13 75 79 0 46 -8 71 -23 71 -7 0 -7 -4 1 -12 16 -16 15
-90 -1 -111 -16 -22 -108 -19 -115 3 -2 9 0 11 5 5 4 -5 27 -11 50 -12 47 -3
63 13 63 62 0 20 -4 26 -16 21 -8 -3 -13 -2 -10 2 11 18 -11 33 -38 26 -29 -7
-42 -38 -31 -76 5 -18 4 -20 -4 -8 -6 8 -11 39 -11 68 0 59 18 76 49 48 27
-25 33 -19 9 9 -25 29 -40 31 -63 9z"/>
<path d="M18810 6793 c-38 -15 -40 -60 -5 -101 14 -17 30 -44 36 -60 6 -17 16
-33 24 -36 24 -9 55 6 61 30 10 39 -5 96 -27 101 -10 3 -19 12 -19 19 0 15
-35 54 -47 53 -5 0 -15 -3 -23 -6z"/>
<path d="M18634 6732 c-6 -4 -14 -17 -18 -29 -4 -13 -14 -23 -22 -23 -8 0 -21
-15 -29 -32 -12 -29 -14 -30 -15 -10 0 13 -4 21 -9 18 -5 -3 -8 2 -7 12 1 12
-8 18 -33 20 -21 2 -31 0 -27 -7 4 -6 1 -9 -7 -5 -12 4 -14 -15 -15 -108 0
-108 -1 -113 -21 -113 -31 0 -41 -22 -39 -90 l1 -60 7 45 c4 25 8 39 8 31 1
-8 10 -11 22 -8 15 4 20 0 20 -13 0 -12 -6 -17 -17 -15 -10 1 -12 0 -5 -2 7
-3 10 -8 7 -13 -3 -5 4 -14 16 -21 l22 -11 -24 -13 c-17 -9 -28 -10 -36 -3
-10 8 -13 6 -13 -4 0 -24 44 -58 74 -58 l28 0 -23 20 -24 19 26 1 c14 0 31 6
38 13 11 10 13 9 8 -6 -4 -11 -3 -16 4 -11 6 3 8 17 4 33 -4 14 -4 23 0 19 7
-7 115 97 115 112 0 4 10 6 22 2 16 -4 19 -2 13 8 -5 9 -4 11 4 6 13 -9 74 39
77 61 2 8 9 22 17 31 8 10 17 24 20 32 5 13 6 12 6 -1 1 -9 -8 -28 -20 -43
-11 -14 -16 -26 -10 -26 6 0 18 11 26 24 22 33 16 96 -10 110 -11 6 -23 15
-26 20 -4 4 -9 4 -13 -2 -3 -5 1 -15 9 -22 8 -7 15 -9 15 -5 0 4 7 2 15 -5 8
-7 12 -17 9 -22 -3 -5 -19 3 -35 18 -22 21 -26 31 -19 45 16 29 11 57 -12 73
-23 17 -85 21 -104 8z"/>
<path d="M2170 6385 c-8 -9 -10 -29 -7 -50 5 -31 3 -35 -16 -35 -35 0 -50 -16
-50 -50 0 -34 15 -50 49 -50 26 0 44 18 44 46 0 12 7 27 14 34 24 19 39 76 26
100 -13 24 -42 26 -60 5z"/>
<path d="M2089 6165 c-38 -20 -49 -63 -49 -179 1 -84 4 -105 19 -123 24 -28
33 -29 57 -2 14 16 20 38 21 86 1 40 7 72 16 82 8 9 17 23 20 31 5 13 6 12 6
-1 1 -9 -8 -28 -20 -43 -11 -14 -16 -26 -10 -26 20 0 41 46 41 90 0 85 -40
119 -101 85z"/>
<path d="M14090 5473 c-17 -22 -28 -27 -58 -24 -54 3 -148 -9 -167 -23 -14
-10 -13 -16 10 -61 14 -28 25 -61 25 -75 0 -14 10 -50 21 -80 17 -43 57 -208
59 -241 0 -3 9 -16 19 -28 11 -12 22 -45 26 -74 4 -29 16 -68 26 -88 10 -20
21 -59 25 -87 4 -33 19 -71 40 -104 26 -41 34 -63 34 -100 0 -31 8 -63 25 -94
15 -29 25 -63 25 -90 0 -30 7 -51 24 -71 26 -31 42 -116 38 -193 -2 -25 8 -88
21 -140 14 -56 25 -128 26 -175 1 -92 9 -137 25 -147 26 -17 63 -8 84 22 20
26 28 29 89 32 l68 3 3 114 3 114 -32 29 -32 30 5 194 6 194 -29 21 -29 20 0
179 0 178 -25 16 c-25 16 -25 18 -25 164 l0 148 -32 27 -31 28 7 161 7 161
-45 43 -44 44 -85 0 c-81 0 -87 -1 -107 -27z"/>
<path d="M14593 2810 c-19 -22 -35 -30 -59 -30 -23 0 -38 -7 -48 -22 -9 -13
-30 -29 -48 -38 -50 -24 -53 -44 -32 -265 2 -22 8 -98 13 -170 11 -172 20
-235 37 -262 18 -29 18 -91 -1 -127 -17 -33 -20 -141 -4 -201 12 -49 28 -160
39 -275 7 -83 17 -128 38 -182 6 -15 16 -71 21 -126 6 -54 17 -115 26 -135 8
-20 15 -61 15 -92 0 -55 33 -222 49 -254 5 -9 14 -94 21 -189 9 -142 15 -180
32 -208 l20 -34 93 0 c88 0 94 1 109 25 15 23 23 25 86 25 75 0 85 8 45 34
-25 16 -25 17 -25 171 0 97 -4 155 -10 155 -5 0 -19 9 -30 20 -18 18 -20 33
-20 165 0 83 -4 145 -9 145 -5 0 -17 7 -25 16 -14 13 -16 47 -16 219 l0 205
-25 16 c-20 13 -25 24 -25 59 0 36 5 47 27 63 l28 20 -28 22 -28 22 1 286 2
287 -24 15 c-12 8 -26 19 -31 25 -4 5 -4 69 -1 141 l7 131 -32 33 -31 33 0
115 0 115 -37 38 c-48 49 -82 51 -120 9z"/>
<path d="M13978 2640 c-25 -29 -29 -30 -112 -30 -80 0 -87 -2 -102 -25 -15
-22 -23 -25 -79 -25 -63 0 -67 -2 -103 -45 -18 -21 -29 -19 -48 10 -9 14 -21
25 -26 25 -6 0 -19 -11 -30 -25 -14 -18 -29 -25 -53 -25 -26 0 -39 -6 -51 -25
-15 -23 -23 -25 -85 -25 -37 0 -71 -5 -74 -10 -4 -6 -6 -88 -6 -183 2 -171 2
-172 26 -190 23 -17 25 -25 25 -106 0 -85 1 -89 30 -115 32 -28 31 -40 -2 -64
-24 -18 -23 -30 7 -54 18 -14 25 -29 25 -53 0 -25 6 -37 23 -46 12 -7 25 -17
29 -23 4 -6 8 -75 8 -152 0 -168 5 -197 33 -209 20 -9 23 -20 28 -125 4 -63 7
-120 8 -126 0 -6 12 -16 26 -22 l25 -12 0 -185 c0 -179 1 -185 20 -185 50 0
48 -99 -2 -101 -21 -1 -21 -2 -3 -6 39 -9 45 -31 45 -159 0 -120 1 -123 23
-126 21 -3 22 -8 25 -101 l3 -97 169 0 c159 0 170 1 180 20 10 18 21 20 138
20 122 0 128 1 137 23 9 20 18 22 88 25 68 3 77 5 77 22 0 25 29 40 74 40 34
0 36 2 36 34 0 19 -4 38 -10 41 -22 14 -29 42 -16 67 11 20 11 28 0 43 -10 13
-14 51 -14 125 0 123 -12 200 -40 255 -13 26 -20 60 -20 100 -1 111 -19 264
-35 295 -9 18 -18 68 -21 118 -3 48 -12 103 -19 122 -24 60 -33 194 -35 483
-1 238 -4 287 -19 335 -20 61 -31 188 -32 367 -1 61 -6 116 -11 123 -6 7 -33
12 -64 12 -47 0 -57 -4 -84 -32 l-31 -33 -27 33 -27 33 -27 -31z"/>
<path d="M12258 2313 c-15 -15 -42 -32 -60 -37 -31 -10 -33 -14 -32 -56 0 -25
8 -80 17 -123 10 -43 17 -113 17 -155 0 -61 5 -88 26 -132 20 -42 25 -68 23
-120 -4 -186 28 -507 57 -562 8 -15 14 -45 13 -65 -4 -75 13 -289 26 -338 24
-83 34 -157 33 -226 -1 -50 4 -76 20 -107 23 -44 48 -182 58 -315 l6 -77 75 0
c73 0 75 1 60 18 -23 25 -21 37 9 59 l26 19 -26 17 c-35 23 -35 63 -1 79 31
14 31 20 3 33 -23 10 -23 13 -26 222 -1 131 -6 213 -12 213 -6 0 -19 9 -30 20
-17 17 -20 33 -20 110 0 77 -3 92 -17 97 -10 4 -21 11 -25 17 -4 6 -8 89 -8
185 l0 174 -26 24 -27 25 7 169 7 168 -32 28 -31 28 5 164 6 163 -36 33 -36
33 6 108 c5 73 3 111 -4 120 -16 19 -21 18 -51 -13z"/>
<path d="M6106 2283 c-119 -2 -194 -8 -203 -14 -7 -7 -13 -26 -13 -44 0 -24
-7 -38 -26 -52 l-25 -19 1 -256 c0 -262 -1 -276 -39 -290 -5 -1 -12 -59 -16
-128 -6 -118 -8 -126 -32 -147 l-26 -21 7 -196 c7 -188 6 -196 -14 -216 -11
-11 -24 -20 -30 -20 -6 0 -11 -65 -12 -162 -3 -160 -3 -163 -25 -166 -22 -3
-23 -7 -23 -100 0 -103 -4 -118 -33 -123 -16 -4 -18 -19 -20 -167 l-2 -162
456 0 456 0 10 47 c5 27 6 59 2 73 -13 46 -9 105 8 130 12 17 18 51 21 119 10
237 6 331 -17 424 -12 47 -17 100 -15 152 5 107 17 743 17 825 0 36 -4 79 -8
97 -5 24 -1 45 19 87 14 30 26 72 26 93 0 21 7 65 14 98 15 61 11 74 -22 75
-8 0 -28 15 -44 32 l-30 33 -22 -28 c-28 -35 -40 -34 -66 3 -17 24 -28 30 -53
28 -18 -2 -117 -4 -221 -5z"/>
<path d="M6707 2218 c-20 -6 -42 -18 -47 -28 -5 -9 -12 -86 -15 -171 -6 -186
-12 -241 -32 -295 -16 -44 -13 -240 6 -469 6 -66 6 -116 0 -127 -16 -29 -10
-130 10 -174 39 -86 43 -135 42 -551 l-1 -403 210 0 210 0 0 114 c0 110 1 115
25 133 l25 18 1 198 c0 183 1 199 19 217 11 11 24 20 29 20 5 0 10 91 13 201
l4 202 26 21 c20 17 27 34 32 80 6 58 6 60 -26 87 l-33 29 28 23 c33 28 34 34
2 59 -36 28 -34 77 6 112 l30 27 -2 145 -2 144 27 21 c34 27 34 68 1 99 -14
13 -25 29 -25 36 0 6 11 19 25 28 22 14 25 24 25 74 0 32 -5 63 -12 70 -8 8
-50 12 -123 12 -111 0 -112 0 -138 30 l-27 30 -138 -1 c-75 -1 -154 -6 -175
-11z"/>
<path d="M10272 2048 c-9 -9 -12 -94 -12 -319 0 -266 2 -310 16 -323 18 -18
56 -21 85 -6 18 10 19 24 19 275 l0 265 -25 16 c-18 12 -25 25 -25 48 0 32
-15 56 -35 56 -6 0 -16 -5 -23 -12z"/>
<path d="M9539 1999 c-13 -25 -3 -187 13 -206 6 -8 35 -13 74 -13 54 0 65 3
78 22 24 34 19 67 -14 96 -21 19 -30 36 -30 58 0 40 -27 64 -73 64 -27 0 -39
-6 -48 -21z"/>
<path d="M10886 1884 c-11 -10 -16 -34 -16 -69 0 -71 15 -85 89 -85 80 0 97
19 53 60 -24 22 -32 37 -32 63 0 23 -6 37 -16 41 -28 11 -62 6 -78 -10z"/>
<path d="M9322 1398 c-7 -7 -12 -30 -12 -53 0 -52 13 -65 65 -65 52 0 65 13
65 65 0 52 -13 65 -65 65 -23 0 -46 -5 -53 -12z"/>
<path d="M10260 1293 c-37 -7 -50 -22 -50 -57 0 -23 -8 -38 -32 -58 l-32 -26
42 -41 43 -42 127 3 127 3 3 69 3 68 -46 44 c-43 42 -48 44 -103 43 -31 -1
-68 -4 -82 -6z"/>
<path d="M11078 1249 c-36 -37 -38 -43 -38 -104 0 -53 3 -66 19 -75 52 -27 96
3 107 75 9 65 -17 148 -46 144 -3 0 -22 -18 -42 -40z"/>
<path d="M10332 838 c-7 -7 -12 -27 -12 -46 0 -47 63 -112 109 -112 22 0 36
-8 53 -30 17 -23 30 -30 56 -30 28 0 42 -8 73 -42 24 -28 38 -53 39 -70 0 -40
70 -108 111 -108 24 0 41 -12 83 -55 44 -46 58 -55 87 -55 44 0 59 15 59 57 0
29 -15 49 -125 158 -104 105 -129 125 -154 125 -24 0 -47 16 -113 80 -66 65
-88 80 -113 80 -21 0 -38 9 -57 30 -28 32 -74 40 -96 18z"/>
</g>
</svg>
